<svg width="58" height="48" viewBox="0 0 58 48" fill="none" xmlns="http://www.w3.org/2000/svg">
<path fill-rule="evenodd" clip-rule="evenodd" d="M36.0281 18.6972V10.9909C36.0281 9.91399 35.1551 9.04094 34.0781 9.04094C33.0011 9.04094 32.1281 9.91399 32.1281 10.9909L32.1281 18.6972H30.9501V15.5534C30.9501 14.4765 30.077 13.6034 29.0001 13.6034C27.9231 13.6034 27.0501 14.4765 27.0501 15.5534V18.6972H25.872L25.872 12.9909C25.872 11.914 24.9989 11.0409 23.922 11.0409C22.845 11.0409 21.972 11.914 21.972 12.9909L21.972 18.6972H20.9337C20.5747 18.6972 20.2837 18.9882 20.2837 19.3472C20.2837 19.7062 20.5747 19.9972 20.9337 19.9972H22.9215C22.9213 19.9972 22.9217 19.9972 22.9215 19.9972H24.922C24.9217 19.9972 24.9222 19.9972 24.922 19.9972H27.9992C27.9989 19.9972 27.9995 19.9972 27.9992 19.9972H30.0001C30.0004 19.9972 30.0008 19.9972 30.0011 19.9972H33.0769C33.0773 19.9972 33.0777 19.9972 33.0781 19.9972H35.0781C35.0785 19.9972 35.0789 19.9972 35.0794 19.9972H37.0665C37.4255 19.9972 37.7165 19.7062 37.7165 19.3472C37.7165 18.9882 37.4255 18.6972 37.0665 18.6972H36.0281ZM34.7281 18.6972V10.9909C34.7281 10.632 34.4371 10.3409 34.0781 10.3409C33.7191 10.3409 33.4281 10.632 33.4281 10.9909V18.6972H34.7281ZM23.272 18.6972L23.272 12.9909C23.272 12.632 23.563 12.3409 23.922 12.3409C24.281 12.3409 24.572 12.632 24.572 12.9909V18.6972H23.272ZM28.3501 18.6972H29.6501V15.5534C29.6501 15.1945 29.3591 14.9034 29.0001 14.9034C28.6411 14.9034 28.3501 15.1945 28.3501 15.5534V18.6972Z" fill="#5095EC"/>
<path fill-rule="evenodd" clip-rule="evenodd" d="M36.0781 5.69092C36.0781 6.79549 35.1827 7.69092 34.0781 7.69092C33.7419 7.69092 33.4251 7.60798 33.1471 7.46145L30.8606 9.58062C30.8549 9.56614 30.849 9.55174 30.8429 9.53743C30.9441 9.7767 31.0001 10.0398 31.0001 10.3159C31.0001 11.4205 30.1047 12.3159 29.0001 12.3159C27.8955 12.3159 27.0001 11.4205 27.0001 10.3159C27.0001 10.2509 27.0032 10.1866 27.0093 10.1232L25.255 9.18188C24.9012 9.49844 24.4341 9.69092 23.922 9.69092C22.8174 9.69092 21.922 8.79549 21.922 7.69092C21.922 6.58635 22.8174 5.69092 23.922 5.69092C25.0265 5.69092 25.922 6.58635 25.922 7.69092C25.922 7.81259 25.9111 7.93173 25.8903 8.04741L27.5503 8.93817C27.5179 8.97224 27.4867 9.00745 27.4568 9.04373C27.8236 8.59924 28.3788 8.31592 29.0001 8.31592C29.3705 8.31592 29.7173 8.41659 30.0148 8.59206C30.0148 8.59206 30.0148 8.59206 30.0148 8.59206L32.2554 6.51538C32.1415 6.26399 32.0781 5.98486 32.0781 5.69092C32.0781 4.58635 32.9735 3.69092 34.0781 3.69092C35.1827 3.69092 36.0781 4.58635 36.0781 5.69092ZM34.7781 5.69092C34.7781 6.07752 34.4647 6.39092 34.0781 6.39092C33.6915 6.39092 33.3781 6.07752 33.3781 5.69092C33.3781 5.30432 33.6915 4.99092 34.0781 4.99092C34.4647 4.99092 34.7781 5.30432 34.7781 5.69092ZM24.622 7.69092C24.622 8.07752 24.3086 8.39092 23.922 8.39092C23.5354 8.39092 23.222 8.07752 23.222 7.69092C23.222 7.30432 23.5354 6.99092 23.922 6.99092C24.3086 6.99092 24.622 7.30432 24.622 7.69092ZM29.0001 11.0159C29.3867 11.0159 29.7001 10.7025 29.7001 10.3159C29.7001 9.92932 29.3867 9.61592 29.0001 9.61592C28.6135 9.61592 28.3001 9.92932 28.3001 10.3159C28.3001 10.7025 28.6135 11.0159 29.0001 11.0159Z" fill="#5095EC"/>
<path d="M5.95996 42.4844C5.95996 42.252 5.9235 42.0469 5.85059 41.8691C5.78223 41.6868 5.65918 41.5228 5.48145 41.377C5.30827 41.2311 5.06673 41.0921 4.75684 40.96C4.4515 40.8278 4.06413 40.6934 3.59473 40.5566C3.10254 40.4108 2.6582 40.249 2.26172 40.0713C1.86523 39.889 1.52572 39.6816 1.24316 39.4492C0.960612 39.2168 0.744141 38.9502 0.59375 38.6494C0.443359 38.3486 0.368164 38.0046 0.368164 37.6172C0.368164 37.2298 0.447917 36.8721 0.607422 36.5439C0.766927 36.2158 0.994792 35.931 1.29102 35.6895C1.5918 35.4434 1.94954 35.252 2.36426 35.1152C2.77897 34.9785 3.24154 34.9102 3.75195 34.9102C4.49935 34.9102 5.13281 35.0537 5.65234 35.3408C6.17643 35.6234 6.5752 35.9948 6.84863 36.4551C7.12207 36.9108 7.25879 37.3984 7.25879 37.918H5.94629C5.94629 37.5443 5.86654 37.2139 5.70703 36.9268C5.54753 36.6351 5.30599 36.4072 4.98242 36.2432C4.65885 36.0745 4.2487 35.9902 3.75195 35.9902C3.28255 35.9902 2.89518 36.0609 2.58984 36.2021C2.28451 36.3434 2.05664 36.5348 1.90625 36.7764C1.76042 37.0179 1.6875 37.2936 1.6875 37.6035C1.6875 37.8132 1.73079 38.0046 1.81738 38.1777C1.90853 38.3464 2.04753 38.5036 2.23438 38.6494C2.42578 38.7952 2.66732 38.9297 2.95898 39.0527C3.25521 39.1758 3.6084 39.2943 4.01855 39.4082C4.58366 39.5677 5.07129 39.7454 5.48145 39.9414C5.8916 40.1374 6.22884 40.3584 6.49316 40.6045C6.76204 40.846 6.96029 41.1217 7.08789 41.4316C7.22005 41.737 7.28613 42.0833 7.28613 42.4707C7.28613 42.8763 7.2041 43.2432 7.04004 43.5713C6.87598 43.8994 6.64128 44.1797 6.33594 44.4121C6.0306 44.6445 5.66374 44.8245 5.23535 44.9521C4.81152 45.0752 4.33757 45.1367 3.81348 45.1367C3.35319 45.1367 2.89974 45.0729 2.45312 44.9453C2.01107 44.8177 1.60775 44.6263 1.24316 44.3711C0.883138 44.1159 0.59375 43.8014 0.375 43.4277C0.160807 43.0495 0.0537109 42.612 0.0537109 42.1152H1.36621C1.36621 42.457 1.43229 42.751 1.56445 42.9971C1.69661 43.2386 1.87663 43.4391 2.10449 43.5986C2.33691 43.7581 2.59896 43.8766 2.89062 43.9541C3.18685 44.027 3.49447 44.0635 3.81348 44.0635C4.27376 44.0635 4.66341 43.9997 4.98242 43.8721C5.30143 43.7445 5.54297 43.5622 5.70703 43.3252C5.87565 43.0882 5.95996 42.8079 5.95996 42.4844ZM11.873 37.6035V38.5742H7.87402V37.6035H11.873ZM9.22754 35.8057H10.4922V43.168C10.4922 43.4186 10.5309 43.6077 10.6084 43.7354C10.6859 43.863 10.7861 43.9473 10.9092 43.9883C11.0322 44.0293 11.1644 44.0498 11.3057 44.0498C11.4105 44.0498 11.5199 44.0407 11.6338 44.0225C11.7523 43.9997 11.8411 43.9814 11.9004 43.9678L11.9072 45C11.807 45.0319 11.6748 45.0615 11.5107 45.0889C11.3512 45.1208 11.1576 45.1367 10.9297 45.1367C10.6198 45.1367 10.335 45.0752 10.0752 44.9521C9.81543 44.8291 9.60807 44.624 9.45312 44.3369C9.30273 44.0452 9.22754 43.6533 9.22754 43.1611V35.8057ZM17.7178 43.7354V39.9277C17.7178 39.6361 17.6585 39.3831 17.54 39.1689C17.4261 38.9502 17.2529 38.7816 17.0205 38.6631C16.7881 38.5446 16.501 38.4854 16.1592 38.4854C15.8402 38.4854 15.5599 38.54 15.3184 38.6494C15.0814 38.7588 14.8945 38.9023 14.7578 39.0801C14.6257 39.2578 14.5596 39.4492 14.5596 39.6543H13.2949C13.2949 39.39 13.3633 39.1279 13.5 38.8682C13.6367 38.6084 13.8327 38.3737 14.0879 38.1641C14.3477 37.9499 14.6576 37.7812 15.0176 37.6582C15.3822 37.5306 15.7878 37.4668 16.2344 37.4668C16.7721 37.4668 17.2461 37.5579 17.6562 37.7402C18.071 37.9225 18.3945 38.1982 18.627 38.5674C18.8639 38.932 18.9824 39.39 18.9824 39.9414V43.3867C18.9824 43.6328 19.0029 43.8949 19.0439 44.1729C19.0895 44.4508 19.1556 44.6901 19.2422 44.8906V45H17.9229C17.859 44.8542 17.8089 44.6605 17.7725 44.4189C17.736 44.1729 17.7178 43.945 17.7178 43.7354ZM17.9365 40.5156L17.9502 41.4043H16.6719C16.3118 41.4043 15.9906 41.4339 15.708 41.4932C15.4255 41.5479 15.1885 41.6322 14.9971 41.7461C14.8057 41.86 14.6598 42.0036 14.5596 42.1768C14.4593 42.3454 14.4092 42.5436 14.4092 42.7715C14.4092 43.0039 14.4616 43.2158 14.5664 43.4072C14.6712 43.5986 14.8285 43.7513 15.0381 43.8652C15.2523 43.9746 15.5143 44.0293 15.8242 44.0293C16.2116 44.0293 16.5534 43.9473 16.8496 43.7832C17.1458 43.6191 17.3805 43.4186 17.5537 43.1816C17.7314 42.9447 17.8271 42.7145 17.8408 42.4912L18.3809 43.0996C18.349 43.291 18.2624 43.5029 18.1211 43.7354C17.9798 43.9678 17.7907 44.1911 17.5537 44.4053C17.3213 44.6149 17.0433 44.7904 16.7197 44.9316C16.4007 45.0684 16.0407 45.1367 15.6396 45.1367C15.1383 45.1367 14.6986 45.0387 14.3203 44.8428C13.9466 44.6468 13.6549 44.3848 13.4453 44.0566C13.2402 43.724 13.1377 43.3525 13.1377 42.9424C13.1377 42.5459 13.2152 42.1973 13.3701 41.8965C13.5251 41.5911 13.7484 41.3382 14.04 41.1377C14.3317 40.9326 14.6826 40.7777 15.0928 40.6729C15.5029 40.568 15.9609 40.5156 16.4668 40.5156H17.9365ZM24.0684 37.6035V38.5742H20.0693V37.6035H24.0684ZM21.4229 35.8057H22.6875V43.168C22.6875 43.4186 22.7262 43.6077 22.8037 43.7354C22.8812 43.863 22.9814 43.9473 23.1045 43.9883C23.2275 44.0293 23.3597 44.0498 23.501 44.0498C23.6058 44.0498 23.7152 44.0407 23.8291 44.0225C23.9476 43.9997 24.0365 43.9814 24.0957 43.9678L24.1025 45C24.0023 45.0319 23.8701 45.0615 23.7061 45.0889C23.5465 45.1208 23.3529 45.1367 23.125 45.1367C22.8151 45.1367 22.5303 45.0752 22.2705 44.9521C22.0107 44.8291 21.8034 44.624 21.6484 44.3369C21.498 44.0452 21.4229 43.6533 21.4229 43.1611V35.8057ZM26.9258 37.6035V45H25.6543V37.6035H26.9258ZM25.5586 35.6416C25.5586 35.4365 25.6201 35.2633 25.7432 35.1221C25.8708 34.9808 26.0576 34.9102 26.3037 34.9102C26.5452 34.9102 26.7298 34.9808 26.8574 35.1221C26.9896 35.2633 27.0557 35.4365 27.0557 35.6416C27.0557 35.8376 26.9896 36.0062 26.8574 36.1475C26.7298 36.2842 26.5452 36.3525 26.3037 36.3525C26.0576 36.3525 25.8708 36.2842 25.7432 36.1475C25.6201 36.0062 25.5586 35.8376 25.5586 35.6416ZM33.2627 43.0381C33.2627 42.8558 33.2217 42.6872 33.1396 42.5322C33.0622 42.3727 32.9004 42.2292 32.6543 42.1016C32.4128 41.9694 32.0482 41.8555 31.5605 41.7598C31.1504 41.6732 30.779 41.5706 30.4463 41.4521C30.1182 41.3337 29.8379 41.1901 29.6055 41.0215C29.3776 40.8529 29.2021 40.6546 29.0791 40.4268C28.9561 40.1989 28.8945 39.9323 28.8945 39.627C28.8945 39.3353 28.9583 39.0596 29.0859 38.7998C29.2181 38.54 29.4027 38.3099 29.6396 38.1094C29.8812 37.9089 30.1706 37.7516 30.5078 37.6377C30.8451 37.5238 31.221 37.4668 31.6357 37.4668C32.2282 37.4668 32.734 37.5716 33.1533 37.7812C33.5726 37.9909 33.8939 38.2712 34.1172 38.6221C34.3405 38.9684 34.4521 39.3535 34.4521 39.7773H33.1875C33.1875 39.5723 33.126 39.374 33.0029 39.1826C32.8844 38.9867 32.709 38.8249 32.4766 38.6973C32.2487 38.5697 31.9684 38.5059 31.6357 38.5059C31.2848 38.5059 31 38.5605 30.7812 38.6699C30.5671 38.7747 30.4098 38.9092 30.3096 39.0732C30.2139 39.2373 30.166 39.4105 30.166 39.5928C30.166 39.7295 30.1888 39.8525 30.2344 39.9619C30.2845 40.0667 30.3711 40.1647 30.4941 40.2559C30.6172 40.3424 30.7904 40.4245 31.0137 40.502C31.237 40.5794 31.5218 40.6569 31.8682 40.7344C32.4743 40.8711 32.9733 41.0352 33.3652 41.2266C33.7572 41.418 34.0488 41.6527 34.2402 41.9307C34.4316 42.2087 34.5273 42.5459 34.5273 42.9424C34.5273 43.266 34.459 43.5622 34.3223 43.8311C34.1901 44.0999 33.9964 44.3324 33.7412 44.5283C33.4906 44.7197 33.1898 44.8701 32.8389 44.9795C32.4925 45.0843 32.1029 45.1367 31.6699 45.1367C31.0182 45.1367 30.4668 45.0205 30.0156 44.7881C29.5645 44.5557 29.2227 44.2549 28.9902 43.8857C28.7578 43.5166 28.6416 43.127 28.6416 42.7168H29.9131C29.9313 43.0632 30.0316 43.3389 30.2139 43.5439C30.3962 43.7445 30.6195 43.888 30.8838 43.9746C31.1481 44.0566 31.4102 44.0977 31.6699 44.0977C32.0163 44.0977 32.3057 44.0521 32.5381 43.9609C32.7751 43.8698 32.9551 43.7445 33.0781 43.585C33.2012 43.4255 33.2627 43.2432 33.2627 43.0381ZM39.2852 37.6035V38.5742H35.2861V37.6035H39.2852ZM36.6396 35.8057H37.9043V43.168C37.9043 43.4186 37.943 43.6077 38.0205 43.7354C38.098 43.863 38.1982 43.9473 38.3213 43.9883C38.4443 44.0293 38.5765 44.0498 38.7178 44.0498C38.8226 44.0498 38.932 44.0407 39.0459 44.0225C39.1644 43.9997 39.2533 43.9814 39.3125 43.9678L39.3193 45C39.2191 45.0319 39.0869 45.0615 38.9229 45.0889C38.7633 45.1208 38.5697 45.1367 38.3418 45.1367C38.0319 45.1367 37.7471 45.0752 37.4873 44.9521C37.2275 44.8291 37.0202 44.624 36.8652 44.3369C36.7148 44.0452 36.6396 43.6533 36.6396 43.1611V35.8057ZM42.1426 37.6035V45H40.8711V37.6035H42.1426ZM40.7754 35.6416C40.7754 35.4365 40.8369 35.2633 40.96 35.1221C41.0876 34.9808 41.2744 34.9102 41.5205 34.9102C41.762 34.9102 41.9466 34.9808 42.0742 35.1221C42.2064 35.2633 42.2725 35.4365 42.2725 35.6416C42.2725 35.8376 42.2064 36.0062 42.0742 36.1475C41.9466 36.2842 41.762 36.3525 41.5205 36.3525C41.2744 36.3525 41.0876 36.2842 40.96 36.1475C40.8369 36.0062 40.7754 35.8376 40.7754 35.6416ZM47.1328 44.0977C47.4336 44.0977 47.7116 44.0361 47.9668 43.9131C48.222 43.79 48.4316 43.6214 48.5957 43.4072C48.7598 43.1885 48.8532 42.9401 48.876 42.6621H50.0791C50.0563 43.0996 49.9082 43.5075 49.6348 43.8857C49.3659 44.2594 49.0127 44.5625 48.5752 44.7949C48.1377 45.0228 47.6569 45.1367 47.1328 45.1367C46.5768 45.1367 46.0915 45.0387 45.6768 44.8428C45.2666 44.6468 44.9248 44.3779 44.6514 44.0361C44.3825 43.6943 44.1797 43.3024 44.043 42.8604C43.9108 42.4137 43.8447 41.9421 43.8447 41.4453V41.1582C43.8447 40.6615 43.9108 40.1921 44.043 39.75C44.1797 39.3034 44.3825 38.9092 44.6514 38.5674C44.9248 38.2256 45.2666 37.9567 45.6768 37.7607C46.0915 37.5648 46.5768 37.4668 47.1328 37.4668C47.7116 37.4668 48.2174 37.5853 48.6504 37.8223C49.0833 38.0547 49.4229 38.3737 49.6689 38.7793C49.9196 39.1803 50.0563 39.6361 50.0791 40.1465H48.876C48.8532 39.8411 48.7666 39.5654 48.6162 39.3193C48.4704 39.0732 48.2699 38.8773 48.0146 38.7314C47.764 38.5811 47.4701 38.5059 47.1328 38.5059C46.7454 38.5059 46.4196 38.5833 46.1553 38.7383C45.8955 38.8887 45.6882 39.0938 45.5332 39.3535C45.3828 39.6087 45.2734 39.8936 45.2051 40.208C45.1413 40.5179 45.1094 40.8346 45.1094 41.1582V41.4453C45.1094 41.7689 45.1413 42.0879 45.2051 42.4023C45.2689 42.7168 45.376 43.0016 45.5264 43.2568C45.6813 43.512 45.8887 43.7171 46.1484 43.8721C46.4128 44.0225 46.7409 44.0977 47.1328 44.0977ZM55.8076 43.0381C55.8076 42.8558 55.7666 42.6872 55.6846 42.5322C55.6071 42.3727 55.4453 42.2292 55.1992 42.1016C54.9577 41.9694 54.5931 41.8555 54.1055 41.7598C53.6953 41.6732 53.3239 41.5706 52.9912 41.4521C52.6631 41.3337 52.3828 41.1901 52.1504 41.0215C51.9225 40.8529 51.7471 40.6546 51.624 40.4268C51.501 40.1989 51.4395 39.9323 51.4395 39.627C51.4395 39.3353 51.5033 39.0596 51.6309 38.7998C51.763 38.54 51.9476 38.3099 52.1846 38.1094C52.4261 37.9089 52.7155 37.7516 53.0527 37.6377C53.39 37.5238 53.766 37.4668 54.1807 37.4668C54.7731 37.4668 55.279 37.5716 55.6982 37.7812C56.1175 37.9909 56.4388 38.2712 56.6621 38.6221C56.8854 38.9684 56.9971 39.3535 56.9971 39.7773H55.7324C55.7324 39.5723 55.6709 39.374 55.5479 39.1826C55.4294 38.9867 55.2539 38.8249 55.0215 38.6973C54.7936 38.5697 54.5133 38.5059 54.1807 38.5059C53.8298 38.5059 53.5449 38.5605 53.3262 38.6699C53.112 38.7747 52.9548 38.9092 52.8545 39.0732C52.7588 39.2373 52.7109 39.4105 52.7109 39.5928C52.7109 39.7295 52.7337 39.8525 52.7793 39.9619C52.8294 40.0667 52.916 40.1647 53.0391 40.2559C53.1621 40.3424 53.3353 40.4245 53.5586 40.502C53.7819 40.5794 54.0667 40.6569 54.4131 40.7344C55.0192 40.8711 55.5182 41.0352 55.9102 41.2266C56.3021 41.418 56.5938 41.6527 56.7852 41.9307C56.9766 42.2087 57.0723 42.5459 57.0723 42.9424C57.0723 43.266 57.0039 43.5622 56.8672 43.8311C56.735 44.0999 56.5413 44.3324 56.2861 44.5283C56.0355 44.7197 55.7347 44.8701 55.3838 44.9795C55.0374 45.0843 54.6478 45.1367 54.2148 45.1367C53.5632 45.1367 53.0117 45.0205 52.5605 44.7881C52.1094 44.5557 51.7676 44.2549 51.5352 43.8857C51.3027 43.5166 51.1865 43.127 51.1865 42.7168H52.458C52.4762 43.0632 52.5765 43.3389 52.7588 43.5439C52.9411 43.7445 53.1644 43.888 53.4287 43.9746C53.693 44.0566 53.9551 44.0977 54.2148 44.0977C54.5612 44.0977 54.8506 44.0521 55.083 43.9609C55.32 43.8698 55.5 43.7445 55.623 43.585C55.7461 43.4255 55.8076 43.2432 55.8076 43.0381Z" fill="#505050"/>
</svg>
