<svg width="264" height="310" viewBox="0 0 264 310" fill="none" xmlns="http://www.w3.org/2000/svg">
<path d="M24.9072 13.0469V23H23.1914L18.7275 15.8701V23H17.0117V13.0469H18.7275L23.2051 20.1904V13.0469H24.9072ZM30.957 21.5166V17.9893C30.957 17.7249 30.9092 17.4971 30.8135 17.3057C30.7178 17.1143 30.5719 16.9661 30.376 16.8613C30.1846 16.7565 29.943 16.7041 29.6514 16.7041C29.3825 16.7041 29.1501 16.7497 28.9541 16.8408C28.7581 16.932 28.6055 17.055 28.4961 17.21C28.3867 17.3649 28.332 17.5404 28.332 17.7363H26.6914C26.6914 17.4447 26.762 17.1621 26.9033 16.8887C27.0446 16.6152 27.2497 16.3714 27.5186 16.1572C27.7874 15.943 28.1087 15.7744 28.4824 15.6514C28.8561 15.5283 29.2754 15.4668 29.7402 15.4668C30.2962 15.4668 30.7884 15.5602 31.2168 15.7471C31.6497 15.9339 31.9893 16.2165 32.2354 16.5947C32.486 16.9684 32.6113 17.4378 32.6113 18.0029V21.291C32.6113 21.6283 32.6341 21.9313 32.6797 22.2002C32.7298 22.4645 32.8005 22.6947 32.8916 22.8906V23H31.2031C31.1257 22.8223 31.0641 22.5967 31.0186 22.3232C30.9775 22.0452 30.957 21.7764 30.957 21.5166ZM31.1963 18.502L31.21 19.5205H30.0273C29.722 19.5205 29.4531 19.5501 29.2207 19.6094C28.9883 19.6641 28.7946 19.7461 28.6396 19.8555C28.4847 19.9648 28.3685 20.097 28.291 20.252C28.2135 20.4069 28.1748 20.5824 28.1748 20.7783C28.1748 20.9743 28.2204 21.1543 28.3115 21.3184C28.4027 21.4779 28.5348 21.6032 28.708 21.6943C28.8857 21.7855 29.0999 21.8311 29.3506 21.8311C29.6878 21.8311 29.9818 21.7627 30.2324 21.626C30.4876 21.4847 30.6882 21.3138 30.834 21.1133C30.9798 20.9082 31.0573 20.7145 31.0664 20.5322L31.5996 21.2637C31.5449 21.4505 31.4515 21.651 31.3193 21.8652C31.1872 22.0794 31.014 22.2845 30.7998 22.4805C30.5902 22.6719 30.3372 22.8291 30.041 22.9521C29.7493 23.0752 29.4121 23.1367 29.0293 23.1367C28.5462 23.1367 28.1156 23.041 27.7373 22.8496C27.359 22.6536 27.0628 22.3916 26.8486 22.0635C26.6344 21.7308 26.5273 21.3548 26.5273 20.9355C26.5273 20.5436 26.6003 20.1973 26.7461 19.8965C26.8965 19.5911 27.1152 19.3359 27.4023 19.1309C27.694 18.9258 28.0495 18.7708 28.4688 18.666C28.888 18.5566 29.3665 18.502 29.9043 18.502H31.1963ZM36.6309 21.6943L38.4424 15.6035H40.1514L37.5811 23H36.5146L36.6309 21.6943ZM35.2432 15.6035L37.0889 21.7217L37.1777 23H36.1113L33.5273 15.6035H35.2432ZM42.9336 15.6035V23H41.2793V15.6035H42.9336ZM41.1699 13.6621C41.1699 13.4115 41.252 13.2041 41.416 13.04C41.5846 12.8714 41.8171 12.7871 42.1133 12.7871C42.4049 12.7871 42.6351 12.8714 42.8037 13.04C42.9723 13.2041 43.0566 13.4115 43.0566 13.6621C43.0566 13.9082 42.9723 14.1133 42.8037 14.2773C42.6351 14.4414 42.4049 14.5234 42.1133 14.5234C41.8171 14.5234 41.5846 14.4414 41.416 14.2773C41.252 14.1133 41.1699 13.9082 41.1699 13.6621ZM49.4756 15.6035H50.9727V22.7949C50.9727 23.4603 50.8314 24.0254 50.5488 24.4902C50.2663 24.9551 49.8721 25.3083 49.3662 25.5498C48.8604 25.7959 48.2747 25.9189 47.6094 25.9189C47.3268 25.9189 47.0124 25.8779 46.666 25.7959C46.3242 25.7139 45.9915 25.5817 45.668 25.3994C45.349 25.2217 45.0824 24.987 44.8682 24.6953L45.6406 23.7246C45.9049 24.0391 46.1966 24.2692 46.5156 24.415C46.8346 24.5609 47.1696 24.6338 47.5205 24.6338C47.8988 24.6338 48.2201 24.5632 48.4844 24.4219C48.7533 24.2852 48.9606 24.0824 49.1064 23.8135C49.2523 23.5446 49.3252 23.2165 49.3252 22.8291V17.2783L49.4756 15.6035ZM44.4512 19.3838V19.2402C44.4512 18.6797 44.5195 18.1693 44.6562 17.709C44.793 17.2441 44.9889 16.8454 45.2441 16.5127C45.4993 16.1755 45.8092 15.918 46.1738 15.7402C46.5384 15.5579 46.9508 15.4668 47.4111 15.4668C47.8896 15.4668 48.2975 15.5534 48.6348 15.7266C48.9766 15.8997 49.2614 16.1481 49.4893 16.4717C49.7171 16.7907 49.8949 17.1735 50.0225 17.6201C50.1546 18.0622 50.2526 18.5544 50.3164 19.0967V19.5547C50.2572 20.0833 50.1569 20.5664 50.0156 21.0039C49.8743 21.4414 49.6875 21.8197 49.4551 22.1387C49.2227 22.4577 48.9355 22.7038 48.5938 22.877C48.2565 23.0501 47.8577 23.1367 47.3975 23.1367C46.9463 23.1367 46.5384 23.0433 46.1738 22.8564C45.8138 22.6696 45.5039 22.4076 45.2441 22.0703C44.9889 21.7331 44.793 21.3366 44.6562 20.8809C44.5195 20.4206 44.4512 19.9215 44.4512 19.3838ZM46.0986 19.2402V19.3838C46.0986 19.721 46.1305 20.0355 46.1943 20.3271C46.2627 20.6188 46.3652 20.8763 46.502 21.0996C46.6432 21.3184 46.821 21.4915 47.0352 21.6191C47.2539 21.7422 47.5114 21.8037 47.8076 21.8037C48.195 21.8037 48.5117 21.7217 48.7578 21.5576C49.0085 21.3936 49.1999 21.1725 49.332 20.8945C49.4688 20.612 49.5645 20.2975 49.6191 19.9512V18.7139C49.5918 18.445 49.5348 18.1943 49.4482 17.9619C49.3662 17.7295 49.2546 17.5267 49.1133 17.3535C48.972 17.1758 48.7943 17.0391 48.5801 16.9434C48.3659 16.8431 48.113 16.793 47.8213 16.793C47.5251 16.793 47.2676 16.8568 47.0488 16.9844C46.8301 17.112 46.6501 17.2874 46.5088 17.5107C46.3721 17.734 46.2695 17.9938 46.2012 18.29C46.1328 18.5863 46.0986 18.903 46.0986 19.2402ZM56.8516 21.5166V17.9893C56.8516 17.7249 56.8037 17.4971 56.708 17.3057C56.6123 17.1143 56.4665 16.9661 56.2705 16.8613C56.0791 16.7565 55.8376 16.7041 55.5459 16.7041C55.277 16.7041 55.0446 16.7497 54.8486 16.8408C54.6527 16.932 54.5 17.055 54.3906 17.21C54.2812 17.3649 54.2266 17.5404 54.2266 17.7363H52.5859C52.5859 17.4447 52.6566 17.1621 52.7979 16.8887C52.9391 16.6152 53.1442 16.3714 53.4131 16.1572C53.682 15.943 54.0033 15.7744 54.377 15.6514C54.7507 15.5283 55.1699 15.4668 55.6348 15.4668C56.1908 15.4668 56.6829 15.5602 57.1113 15.7471C57.5443 15.9339 57.8838 16.2165 58.1299 16.5947C58.3805 16.9684 58.5059 17.4378 58.5059 18.0029V21.291C58.5059 21.6283 58.5286 21.9313 58.5742 22.2002C58.6243 22.4645 58.695 22.6947 58.7861 22.8906V23H57.0977C57.0202 22.8223 56.9587 22.5967 56.9131 22.3232C56.8721 22.0452 56.8516 21.7764 56.8516 21.5166ZM57.0908 18.502L57.1045 19.5205H55.9219C55.6165 19.5205 55.3477 19.5501 55.1152 19.6094C54.8828 19.6641 54.6891 19.7461 54.5342 19.8555C54.3792 19.9648 54.263 20.097 54.1855 20.252C54.1081 20.4069 54.0693 20.5824 54.0693 20.7783C54.0693 20.9743 54.1149 21.1543 54.2061 21.3184C54.2972 21.4779 54.4294 21.6032 54.6025 21.6943C54.7803 21.7855 54.9945 21.8311 55.2451 21.8311C55.5824 21.8311 55.8763 21.7627 56.127 21.626C56.3822 21.4847 56.5827 21.3138 56.7285 21.1133C56.8743 20.9082 56.9518 20.7145 56.9609 20.5322L57.4941 21.2637C57.4395 21.4505 57.346 21.651 57.2139 21.8652C57.0817 22.0794 56.9085 22.2845 56.6943 22.4805C56.4847 22.6719 56.2318 22.8291 55.9355 22.9521C55.6439 23.0752 55.3066 23.1367 54.9238 23.1367C54.4408 23.1367 54.0101 23.041 53.6318 22.8496C53.2536 22.6536 52.9574 22.3916 52.7432 22.0635C52.529 21.7308 52.4219 21.3548 52.4219 20.9355C52.4219 20.5436 52.4948 20.1973 52.6406 19.8965C52.791 19.5911 53.0098 19.3359 53.2969 19.1309C53.5885 18.9258 53.944 18.7708 54.3633 18.666C54.7826 18.5566 55.2611 18.502 55.7988 18.502H57.0908ZM63.6191 15.6035V16.8066H59.4492V15.6035H63.6191ZM60.6523 13.792H62.2998V20.9561C62.2998 21.1839 62.3317 21.3594 62.3955 21.4824C62.4639 21.6009 62.5573 21.6807 62.6758 21.7217C62.7943 21.7627 62.9333 21.7832 63.0928 21.7832C63.2067 21.7832 63.3161 21.7764 63.4209 21.7627C63.5257 21.749 63.61 21.7354 63.6738 21.7217L63.6807 22.9795C63.5439 23.0205 63.3844 23.057 63.2021 23.0889C63.0244 23.1208 62.8193 23.1367 62.5869 23.1367C62.2087 23.1367 61.8737 23.0706 61.582 22.9385C61.2904 22.8018 61.0625 22.5807 60.8984 22.2754C60.7344 21.9701 60.6523 21.5645 60.6523 21.0586V13.792ZM66.6543 15.6035V23H65V15.6035H66.6543ZM64.8906 13.6621C64.8906 13.4115 64.9727 13.2041 65.1367 13.04C65.3053 12.8714 65.5378 12.7871 65.834 12.7871C66.1257 12.7871 66.3558 12.8714 66.5244 13.04C66.693 13.2041 66.7773 13.4115 66.7773 13.6621C66.7773 13.9082 66.693 14.1133 66.5244 14.2773C66.3558 14.4414 66.1257 14.5234 65.834 14.5234C65.5378 14.5234 65.3053 14.4414 65.1367 14.2773C64.9727 14.1133 64.8906 13.9082 64.8906 13.6621ZM68.1445 19.3838V19.2266C68.1445 18.6934 68.222 18.1989 68.377 17.7432C68.5319 17.2829 68.7552 16.8841 69.0469 16.5469C69.3431 16.2051 69.7031 15.9408 70.127 15.7539C70.5553 15.5625 71.0384 15.4668 71.5762 15.4668C72.1185 15.4668 72.6016 15.5625 73.0254 15.7539C73.4538 15.9408 73.8161 16.2051 74.1123 16.5469C74.4085 16.8841 74.6341 17.2829 74.7891 17.7432C74.944 18.1989 75.0215 18.6934 75.0215 19.2266V19.3838C75.0215 19.917 74.944 20.4115 74.7891 20.8672C74.6341 21.3229 74.4085 21.7217 74.1123 22.0635C73.8161 22.4007 73.4561 22.665 73.0322 22.8564C72.6084 23.0433 72.1276 23.1367 71.5898 23.1367C71.0475 23.1367 70.5622 23.0433 70.1338 22.8564C69.71 22.665 69.3499 22.4007 69.0537 22.0635C68.7575 21.7217 68.5319 21.3229 68.377 20.8672C68.222 20.4115 68.1445 19.917 68.1445 19.3838ZM69.792 19.2266V19.3838C69.792 19.7165 69.8262 20.0309 69.8945 20.3271C69.9629 20.6234 70.07 20.8831 70.2158 21.1064C70.3617 21.3298 70.5485 21.5052 70.7764 21.6328C71.0042 21.7604 71.2754 21.8242 71.5898 21.8242C71.8952 21.8242 72.1595 21.7604 72.3828 21.6328C72.6107 21.5052 72.7975 21.3298 72.9434 21.1064C73.0892 20.8831 73.1963 20.6234 73.2646 20.3271C73.3376 20.0309 73.374 19.7165 73.374 19.3838V19.2266C73.374 18.8984 73.3376 18.5885 73.2646 18.2969C73.1963 18.0007 73.0869 17.7386 72.9365 17.5107C72.7907 17.2829 72.6038 17.1051 72.376 16.9775C72.1527 16.8454 71.8861 16.7793 71.5762 16.7793C71.2663 16.7793 70.9974 16.8454 70.7695 16.9775C70.5462 17.1051 70.3617 17.2829 70.2158 17.5107C70.07 17.7386 69.9629 18.0007 69.8945 18.2969C69.8262 18.5885 69.792 18.8984 69.792 19.2266ZM78.0361 17.1826V23H76.3887V15.6035H77.9404L78.0361 17.1826ZM77.7422 19.0283L77.209 19.0215C77.2135 18.4974 77.2865 18.0166 77.4277 17.5791C77.5736 17.1416 77.7741 16.7656 78.0293 16.4512C78.2891 16.1367 78.599 15.8952 78.959 15.7266C79.319 15.5534 79.7201 15.4668 80.1621 15.4668C80.5176 15.4668 80.8389 15.5169 81.126 15.6172C81.4176 15.7129 81.666 15.8701 81.8711 16.0889C82.0807 16.3076 82.2402 16.5924 82.3496 16.9434C82.459 17.2897 82.5137 17.7158 82.5137 18.2217V23H80.8594V18.2148C80.8594 17.8594 80.807 17.5791 80.7021 17.374C80.6019 17.1644 80.4538 17.0163 80.2578 16.9297C80.0664 16.8385 79.8271 16.793 79.54 16.793C79.2575 16.793 79.0046 16.8522 78.7812 16.9707C78.5579 17.0892 78.3688 17.251 78.2139 17.4561C78.0635 17.6611 77.9473 17.8981 77.8652 18.167C77.7832 18.4359 77.7422 18.723 77.7422 19.0283Z" fill="#505050"/>
<path d="M232.266 20.8665C232.266 21.0165 232.325 21.1582 232.441 21.2665C232.666 21.4665 233.008 21.4499 233.208 21.2332L237.992 15.9256L242.617 21.2666C242.817 21.4916 243.158 21.4999 243.383 21.2999C243.6 21.0999 243.617 20.7582 243.417 20.5332L238.425 14.7839C238.192 14.5256 237.792 14.5256 237.558 14.7839L232.408 20.4999C232.308 20.6082 232.266 20.7332 232.266 20.8665Z" fill="#505050"/>
<rect y="37" width="264" height="1" fill="#D3D8DE"/>
<path fill-rule="evenodd" clip-rule="evenodd" d="M23.5646 61.968C23.2637 59.32 25.335 57 28 57C30.6651 57 32.7364 59.32 32.4355 61.968L32.1734 64.274C31.9322 66.3966 30.1363 68 28 68C25.8638 68 24.0678 66.3966 23.8266 64.274L23.5646 61.968ZM31.1438 61.8212L30.8817 64.1272C30.7152 65.5928 29.4751 66.7 28 66.7C26.5249 66.7 25.2848 65.5928 25.1183 64.1272L24.8563 61.8212C24.643 59.9444 26.1111 58.3 28 58.3C29.889 58.3 31.3571 59.9444 31.1438 61.8212Z" fill="#505050"/>
<path fill-rule="evenodd" clip-rule="evenodd" d="M20.2893 73.6984C20.8993 70.9532 23.3342 69 26.1464 69H29.8537C32.6658 69 35.1007 70.9532 35.7108 73.6984L35.8107 74.1481C35.9079 74.5853 35.5752 75 35.1274 75H20.8726C20.4248 75 20.0922 74.5853 20.1893 74.1481L20.2893 73.6984ZM29.8537 70.3C31.9595 70.3 33.7953 71.6982 34.3704 73.7H21.6297C22.2047 71.6982 24.0405 70.3 26.1464 70.3H29.8537Z" fill="#505050"/>
<path d="M57.5723 61.0469H58.8506L62.1113 69.1611L65.3652 61.0469H66.6504L62.6035 71H61.6055L57.5723 61.0469ZM57.1553 61.0469H58.2832L58.4678 67.1172V71H57.1553V61.0469ZM65.9326 61.0469H67.0605V71H65.748V67.1172L65.9326 61.0469ZM71.2646 70.2344L73.3223 63.6035H74.6758L71.709 72.1416C71.6406 72.3239 71.5495 72.5199 71.4355 72.7295C71.3262 72.9437 71.1849 73.1465 71.0117 73.3379C70.8385 73.5293 70.6289 73.6842 70.3828 73.8027C70.1413 73.9258 69.8519 73.9873 69.5146 73.9873C69.4144 73.9873 69.2868 73.9736 69.1318 73.9463C68.9769 73.9189 68.8675 73.8962 68.8037 73.8779L68.7969 72.8525C68.8333 72.8571 68.8903 72.8617 68.9678 72.8662C69.0498 72.8753 69.1068 72.8799 69.1387 72.8799C69.4258 72.8799 69.6696 72.8411 69.8701 72.7637C70.0706 72.6908 70.2393 72.5654 70.376 72.3877C70.5173 72.2145 70.638 71.9753 70.7383 71.6699L71.2646 70.2344ZM69.7539 63.6035L71.6748 69.3457L72.0029 70.6787L71.0938 71.1436L68.373 63.6035H69.7539ZM80.5547 65.0254V73.8438H79.2832V63.6035H80.4453L80.5547 65.0254ZM85.5381 67.2402V67.3838C85.5381 67.9215 85.4743 68.4206 85.3467 68.8809C85.2191 69.3366 85.0322 69.7331 84.7861 70.0703C84.5446 70.4076 84.2461 70.6696 83.8906 70.8564C83.5352 71.0433 83.1273 71.1367 82.667 71.1367C82.1976 71.1367 81.7829 71.0592 81.4229 70.9043C81.0628 70.7493 80.7575 70.5238 80.5068 70.2275C80.2562 69.9313 80.0557 69.5758 79.9053 69.1611C79.7594 68.7464 79.6592 68.2793 79.6045 67.7598V66.9941C79.6592 66.4473 79.7617 65.9574 79.9121 65.5244C80.0625 65.0915 80.2607 64.7223 80.5068 64.417C80.7575 64.1071 81.0605 63.8724 81.416 63.7129C81.7715 63.5488 82.1816 63.4668 82.6465 63.4668C83.1113 63.4668 83.5238 63.5579 83.8838 63.7402C84.2438 63.918 84.5469 64.1732 84.793 64.5059C85.0391 64.8385 85.2236 65.2373 85.3467 65.7021C85.4743 66.1624 85.5381 66.6751 85.5381 67.2402ZM84.2666 67.3838V67.2402C84.2666 66.8711 84.2279 66.5247 84.1504 66.2012C84.0729 65.873 83.9521 65.5859 83.7881 65.3398C83.6286 65.0892 83.4235 64.8932 83.1729 64.752C82.9222 64.6061 82.6237 64.5332 82.2773 64.5332C81.9583 64.5332 81.6803 64.5879 81.4434 64.6973C81.2109 64.8066 81.0127 64.9548 80.8486 65.1416C80.6846 65.3239 80.5501 65.5335 80.4453 65.7705C80.3451 66.0029 80.2699 66.2445 80.2197 66.4951V68.2656C80.3109 68.5846 80.4385 68.8854 80.6025 69.168C80.7666 69.446 80.9854 69.6715 81.2588 69.8447C81.5322 70.0133 81.8763 70.0977 82.291 70.0977C82.6328 70.0977 82.9268 70.027 83.1729 69.8857C83.4235 69.7399 83.6286 69.5417 83.7881 69.291C83.9521 69.0404 84.0729 68.7533 84.1504 68.4297C84.2279 68.1016 84.2666 67.7529 84.2666 67.3838ZM88.416 64.7656V71H87.1514V63.6035H88.3818L88.416 64.7656ZM90.7266 63.5625L90.7197 64.7383C90.6149 64.7155 90.5146 64.7018 90.4189 64.6973C90.3278 64.6882 90.223 64.6836 90.1045 64.6836C89.8128 64.6836 89.5553 64.7292 89.332 64.8203C89.1087 64.9115 88.9196 65.0391 88.7646 65.2031C88.6097 65.3672 88.4867 65.5632 88.3955 65.791C88.3089 66.0143 88.252 66.2604 88.2246 66.5293L87.8691 66.7344C87.8691 66.2878 87.9124 65.8685 87.999 65.4766C88.0902 65.0846 88.2292 64.7383 88.416 64.4375C88.6029 64.1322 88.8398 63.8952 89.127 63.7266C89.4186 63.5534 89.765 63.4668 90.166 63.4668C90.2572 63.4668 90.362 63.4782 90.4805 63.501C90.599 63.5192 90.681 63.5397 90.7266 63.5625ZM91.4238 67.3838V67.2266C91.4238 66.6934 91.5013 66.1989 91.6562 65.7432C91.8112 65.2829 92.0345 64.8841 92.3262 64.5469C92.6178 64.2051 92.971 63.9408 93.3857 63.7539C93.8005 63.5625 94.2653 63.4668 94.7803 63.4668C95.2998 63.4668 95.7669 63.5625 96.1816 63.7539C96.6009 63.9408 96.9564 64.2051 97.248 64.5469C97.5443 64.8841 97.7699 65.2829 97.9248 65.7432C98.0798 66.1989 98.1572 66.6934 98.1572 67.2266V67.3838C98.1572 67.917 98.0798 68.4115 97.9248 68.8672C97.7699 69.3229 97.5443 69.7217 97.248 70.0635C96.9564 70.4007 96.6032 70.665 96.1885 70.8564C95.7783 71.0433 95.3135 71.1367 94.7939 71.1367C94.2744 71.1367 93.8073 71.0433 93.3926 70.8564C92.9779 70.665 92.6224 70.4007 92.3262 70.0635C92.0345 69.7217 91.8112 69.3229 91.6562 68.8672C91.5013 68.4115 91.4238 67.917 91.4238 67.3838ZM92.6885 67.2266V67.3838C92.6885 67.7529 92.7318 68.1016 92.8184 68.4297C92.9049 68.7533 93.0348 69.0404 93.208 69.291C93.3857 69.5417 93.6068 69.7399 93.8711 69.8857C94.1354 70.027 94.443 70.0977 94.7939 70.0977C95.1403 70.0977 95.4434 70.027 95.7031 69.8857C95.9674 69.7399 96.1862 69.5417 96.3594 69.291C96.5326 69.0404 96.6624 68.7533 96.749 68.4297C96.8402 68.1016 96.8857 67.7529 96.8857 67.3838V67.2266C96.8857 66.862 96.8402 66.5179 96.749 66.1943C96.6624 65.8662 96.5303 65.5768 96.3525 65.3262C96.1794 65.071 95.9606 64.8704 95.6963 64.7246C95.4365 64.5788 95.1312 64.5059 94.7803 64.5059C94.4339 64.5059 94.1286 64.5788 93.8643 64.7246C93.6045 64.8704 93.3857 65.071 93.208 65.3262C93.0348 65.5768 92.9049 65.8662 92.8184 66.1943C92.7318 66.5179 92.6885 66.862 92.6885 67.2266ZM101.432 71H100.167V62.9609C100.167 62.4004 100.276 61.9264 100.495 61.5391C100.714 61.1517 101.026 60.8577 101.432 60.6572C101.837 60.4567 102.318 60.3564 102.874 60.3564C103.202 60.3564 103.523 60.3975 103.838 60.4795C104.152 60.557 104.476 60.6549 104.809 60.7734L104.597 61.8398C104.387 61.7578 104.143 61.6803 103.865 61.6074C103.592 61.5299 103.291 61.4912 102.963 61.4912C102.421 61.4912 102.029 61.6143 101.787 61.8604C101.55 62.1019 101.432 62.4688 101.432 62.9609V71ZM102.942 63.6035V64.5742H98.998V63.6035H102.942ZM105.431 63.6035V71H104.166V63.6035H105.431ZM108.883 60.5V71H107.611V60.5H108.883ZM113.982 71.1367C113.467 71.1367 113 71.0501 112.581 70.877C112.166 70.6992 111.809 70.4508 111.508 70.1318C111.212 69.8128 110.984 69.4346 110.824 68.9971C110.665 68.5596 110.585 68.0811 110.585 67.5615V67.2744C110.585 66.6729 110.674 66.1374 110.852 65.668C111.029 65.194 111.271 64.793 111.576 64.4648C111.882 64.1367 112.228 63.8883 112.615 63.7197C113.003 63.5511 113.404 63.4668 113.818 63.4668C114.347 63.4668 114.803 63.5579 115.186 63.7402C115.573 63.9225 115.89 64.1777 116.136 64.5059C116.382 64.8294 116.564 65.2122 116.683 65.6543C116.801 66.0918 116.86 66.5703 116.86 67.0898V67.6572H111.337V66.625H115.596V66.5293C115.577 66.2012 115.509 65.8822 115.391 65.5723C115.277 65.2624 115.094 65.0072 114.844 64.8066C114.593 64.6061 114.251 64.5059 113.818 64.5059C113.531 64.5059 113.267 64.5674 113.025 64.6904C112.784 64.8089 112.576 64.9867 112.403 65.2236C112.23 65.4606 112.096 65.75 112 66.0918C111.904 66.4336 111.856 66.8278 111.856 67.2744V67.5615C111.856 67.9124 111.904 68.2428 112 68.5527C112.1 68.8581 112.244 69.127 112.431 69.3594C112.622 69.5918 112.852 69.7741 113.121 69.9062C113.395 70.0384 113.704 70.1045 114.051 70.1045C114.497 70.1045 114.876 70.0133 115.186 69.8311C115.495 69.6488 115.767 69.4049 115.999 69.0996L116.765 69.708C116.605 69.9495 116.402 70.1797 116.156 70.3984C115.91 70.6172 115.607 70.7949 115.247 70.9316C114.892 71.0684 114.47 71.1367 113.982 71.1367Z" fill="#505050"/>
<path fill-rule="evenodd" clip-rule="evenodd" d="M19.0044 102.647L19.0078 99.5546C19.1409 98.1328 21.5507 97 24.5039 97C24.7274 97 24.9478 97.0065 25.1643 97.0191C27.7326 97.1678 29.7561 98.1677 29.9795 99.4151C29.9888 99.4612 29.9956 99.5078 30 99.5546L30 101.929C30 102.278 29.706 102.556 29.3565 102.56C29.0003 102.565 28.7 102.285 28.7 101.929V101.353C27.6911 101.926 26.1839 102.29 24.5 102.29C22.8196 102.29 21.3152 101.928 20.3063 101.356L20.3052 102.647H20.3069C20.3223 102.692 20.4296 102.986 21.1787 103.346C21.8168 103.653 22.9668 103.926 24.1102 104.017C24.2461 104.028 24.3816 104.036 24.5162 104.041C24.8015 104.052 24.9142 104.59 24.7407 104.817C24.4985 105.133 24.1818 105.335 23.7855 105.296C22.4387 105.164 21.1879 104.793 20.3038 104.286L20.3026 105.647H20.3069C20.3223 105.692 20.4296 105.986 21.1787 106.346C21.7462 106.619 22.7897 106.835 23.7863 106.934C24.1323 106.968 24.4054 107.253 24.4054 107.601C24.4054 107.972 24.0957 108.27 23.7266 108.232C22.4039 108.098 21.1741 107.744 20.3012 107.256L20.3001 108.623C20.3019 108.63 20.3056 108.641 20.313 108.657C20.3288 108.691 20.3624 108.747 20.4306 108.822C20.572 108.976 20.8237 109.167 21.2154 109.353C21.7803 109.622 22.8177 109.834 23.7992 109.931C24.1451 109.965 24.4181 110.25 24.4181 110.598C24.4181 110.969 24.1084 111.267 23.7393 111.229C21.2478 110.974 19.0665 109.935 19 108.681L19.0052 102.689C19.0046 102.675 19.0044 102.661 19.0044 102.647ZM27.76 98.9223C27.0925 98.6109 26.1619 98.3785 25.0811 98.3164C24.8925 98.3057 24.6992 98.3 24.502 98.3C23.1767 98.3003 22.0312 98.5569 21.2478 98.9223C20.8562 99.1049 20.5988 99.2942 20.45 99.4509C20.378 99.5267 20.3402 99.5856 20.3214 99.6228C20.3149 99.6357 20.3106 99.646 20.3078 99.6541L20.3078 99.659C20.3375 99.7335 20.481 100.01 21.1743 100.344C21.9582 100.721 23.1324 100.99 24.5 100.99C25.8676 100.99 27.0418 100.721 27.8257 100.344C28.569 99.9863 28.6804 99.6939 28.6971 99.6461C28.6944 99.6395 28.691 99.6318 28.6864 99.6228C28.6676 99.5856 28.6299 99.5267 28.5578 99.4509C28.409 99.2942 28.1517 99.1049 27.76 98.9223Z" fill="#505050"/>
<path fill-rule="evenodd" clip-rule="evenodd" d="M25.9491 112.316L25.9491 109.427C25.9468 109.396 25.9456 109.364 25.9456 109.332H25.9491L25.9491 106.284C25.9524 106.248 25.9572 106.212 25.9634 106.176C26.124 104.784 28.5211 103.68 31.4548 103.68C34.4923 103.68 36.9548 104.864 36.9548 106.325C36.9548 106.387 36.9503 106.449 36.9415 106.51L36.9491 112.316C36.8723 113.789 34.4393 114.972 31.4491 114.972C28.4589 114.972 26.0259 113.789 25.9491 112.316ZM27.2648 106.344C27.3222 106.223 27.5253 105.934 28.1972 105.615C28.9788 105.244 30.1221 104.983 31.4452 104.983C32.7682 104.983 33.9115 105.244 34.6931 105.615C35.4086 105.955 35.5925 106.261 35.635 106.366C35.5848 106.467 35.4075 106.722 34.7805 107.024C33.9966 107.401 32.8224 107.67 31.4548 107.67C30.0872 107.67 28.913 107.401 28.1291 107.024C27.4516 106.698 27.2991 106.426 27.2648 106.344ZM27.2491 108.03C28.258 108.605 29.7677 108.97 31.4548 108.97C33.1325 108.97 34.6347 108.609 35.6435 108.039L35.6452 109.332H35.6426C35.6272 109.377 35.5199 109.671 34.7709 110.031C33.9871 110.408 32.8129 110.677 31.4454 110.677C30.0779 110.677 28.9037 110.408 28.1199 110.031C27.384 109.677 27.2675 109.387 27.2491 109.335V108.03ZM31.4454 111.977C29.7635 111.977 28.2579 111.614 27.2491 111.042V112.257C27.2635 112.314 27.3824 112.644 28.1727 113.026C28.9541 113.404 30.1088 113.672 31.4491 113.672C32.7893 113.672 33.944 113.404 34.7255 113.026C35.5144 112.645 35.6343 112.315 35.649 112.257L35.6474 111.039C34.6386 111.613 33.1305 111.977 31.4454 111.977Z" fill="#505050"/>
<path d="M60.7031 106.345H58.1807L58.167 105.285H60.457C60.8353 105.285 61.1657 105.221 61.4482 105.094C61.7308 104.966 61.9495 104.784 62.1045 104.547C62.264 104.305 62.3438 104.018 62.3438 103.686C62.3438 103.321 62.2731 103.025 62.1318 102.797C61.9951 102.564 61.7832 102.396 61.4961 102.291C61.2135 102.182 60.8535 102.127 60.416 102.127H58.4746V111H57.1553V101.047H60.416C60.9264 101.047 61.3822 101.099 61.7832 101.204C62.1842 101.304 62.5238 101.464 62.8018 101.683C63.0843 101.897 63.2985 102.17 63.4443 102.503C63.5902 102.836 63.6631 103.234 63.6631 103.699C63.6631 104.109 63.5583 104.481 63.3486 104.813C63.139 105.142 62.8473 105.41 62.4736 105.62C62.1045 105.83 61.6715 105.964 61.1748 106.023L60.7031 106.345ZM60.6416 111H57.6611L58.4062 109.927H60.6416C61.0609 109.927 61.4163 109.854 61.708 109.708C62.0042 109.562 62.2298 109.357 62.3848 109.093C62.5397 108.824 62.6172 108.507 62.6172 108.143C62.6172 107.773 62.5511 107.454 62.4189 107.186C62.2868 106.917 62.0794 106.709 61.7969 106.563C61.5143 106.418 61.1497 106.345 60.7031 106.345H58.8232L58.8369 105.285H61.4072L61.6875 105.668C62.166 105.709 62.5716 105.846 62.9043 106.078C63.237 106.306 63.4899 106.598 63.6631 106.953C63.8408 107.309 63.9297 107.701 63.9297 108.129C63.9297 108.749 63.793 109.273 63.5195 109.701C63.2507 110.125 62.8701 110.449 62.3779 110.672C61.8857 110.891 61.307 111 60.6416 111ZM70.0479 109.735V105.928C70.0479 105.636 69.9886 105.383 69.8701 105.169C69.7562 104.95 69.583 104.782 69.3506 104.663C69.1182 104.545 68.8311 104.485 68.4893 104.485C68.1702 104.485 67.89 104.54 67.6484 104.649C67.4115 104.759 67.2246 104.902 67.0879 105.08C66.9557 105.258 66.8896 105.449 66.8896 105.654H65.625C65.625 105.39 65.6934 105.128 65.8301 104.868C65.9668 104.608 66.1628 104.374 66.418 104.164C66.6777 103.95 66.9876 103.781 67.3477 103.658C67.7122 103.531 68.1178 103.467 68.5645 103.467C69.1022 103.467 69.5762 103.558 69.9863 103.74C70.401 103.923 70.7246 104.198 70.957 104.567C71.194 104.932 71.3125 105.39 71.3125 105.941V109.387C71.3125 109.633 71.333 109.895 71.374 110.173C71.4196 110.451 71.4857 110.69 71.5723 110.891V111H70.2529C70.1891 110.854 70.139 110.66 70.1025 110.419C70.0661 110.173 70.0479 109.945 70.0479 109.735ZM70.2666 106.516L70.2803 107.404H69.002C68.6419 107.404 68.3206 107.434 68.0381 107.493C67.7555 107.548 67.5186 107.632 67.3271 107.746C67.1357 107.86 66.9899 108.004 66.8896 108.177C66.7894 108.345 66.7393 108.544 66.7393 108.771C66.7393 109.004 66.7917 109.216 66.8965 109.407C67.0013 109.599 67.1585 109.751 67.3682 109.865C67.5824 109.975 67.8444 110.029 68.1543 110.029C68.5417 110.029 68.8835 109.947 69.1797 109.783C69.4759 109.619 69.7106 109.419 69.8838 109.182C70.0615 108.945 70.1572 108.715 70.1709 108.491L70.7109 109.1C70.679 109.291 70.5924 109.503 70.4512 109.735C70.3099 109.968 70.1208 110.191 69.8838 110.405C69.6514 110.615 69.3734 110.79 69.0498 110.932C68.7308 111.068 68.3708 111.137 67.9697 111.137C67.4684 111.137 67.0286 111.039 66.6504 110.843C66.2767 110.647 65.985 110.385 65.7754 110.057C65.5703 109.724 65.4678 109.353 65.4678 108.942C65.4678 108.546 65.5452 108.197 65.7002 107.896C65.8551 107.591 66.0785 107.338 66.3701 107.138C66.6618 106.933 67.0127 106.778 67.4229 106.673C67.833 106.568 68.291 106.516 68.7969 106.516H70.2666ZM74.6758 100.5V111H73.4043V100.5H74.6758ZM81.0674 109.735V105.928C81.0674 105.636 81.0081 105.383 80.8896 105.169C80.7757 104.95 80.6025 104.782 80.3701 104.663C80.1377 104.545 79.8506 104.485 79.5088 104.485C79.1898 104.485 78.9095 104.54 78.668 104.649C78.431 104.759 78.2441 104.902 78.1074 105.08C77.9753 105.258 77.9092 105.449 77.9092 105.654H76.6445C76.6445 105.39 76.7129 105.128 76.8496 104.868C76.9863 104.608 77.1823 104.374 77.4375 104.164C77.6973 103.95 78.0072 103.781 78.3672 103.658C78.7318 103.531 79.1374 103.467 79.584 103.467C80.1217 103.467 80.5957 103.558 81.0059 103.74C81.4206 103.923 81.7441 104.198 81.9766 104.567C82.2135 104.932 82.332 105.39 82.332 105.941V109.387C82.332 109.633 82.3525 109.895 82.3936 110.173C82.4391 110.451 82.5052 110.69 82.5918 110.891V111H81.2725C81.2087 110.854 81.1585 110.66 81.1221 110.419C81.0856 110.173 81.0674 109.945 81.0674 109.735ZM81.2861 106.516L81.2998 107.404H80.0215C79.6615 107.404 79.3402 107.434 79.0576 107.493C78.7751 107.548 78.5381 107.632 78.3467 107.746C78.1553 107.86 78.0094 108.004 77.9092 108.177C77.8089 108.345 77.7588 108.544 77.7588 108.771C77.7588 109.004 77.8112 109.216 77.916 109.407C78.0208 109.599 78.1781 109.751 78.3877 109.865C78.6019 109.975 78.8639 110.029 79.1738 110.029C79.5612 110.029 79.903 109.947 80.1992 109.783C80.4954 109.619 80.7301 109.419 80.9033 109.182C81.0811 108.945 81.1768 108.715 81.1904 108.491L81.7305 109.1C81.6986 109.291 81.612 109.503 81.4707 109.735C81.3294 109.968 81.1403 110.191 80.9033 110.405C80.6709 110.615 80.3929 110.79 80.0693 110.932C79.7503 111.068 79.3903 111.137 78.9893 111.137C78.488 111.137 78.0482 111.039 77.6699 110.843C77.2962 110.647 77.0046 110.385 76.7949 110.057C76.5898 109.724 76.4873 109.353 76.4873 108.942C76.4873 108.546 76.5648 108.197 76.7197 107.896C76.8747 107.591 77.098 107.338 77.3896 107.138C77.6813 106.933 78.0322 106.778 78.4424 106.673C78.8525 106.568 79.3105 106.516 79.8164 106.516H81.2861ZM85.5859 105.183V111H84.3213V103.604H85.5176L85.5859 105.183ZM85.2852 107.021L84.7588 107.001C84.7633 106.495 84.8385 106.028 84.9844 105.6C85.1302 105.167 85.3353 104.791 85.5996 104.472C85.8639 104.153 86.1784 103.907 86.543 103.733C86.9121 103.556 87.32 103.467 87.7666 103.467C88.1312 103.467 88.4593 103.517 88.751 103.617C89.0426 103.713 89.291 103.868 89.4961 104.082C89.7057 104.296 89.8652 104.574 89.9746 104.916C90.084 105.253 90.1387 105.666 90.1387 106.153V111H88.8672V106.14C88.8672 105.752 88.8102 105.442 88.6963 105.21C88.5824 104.973 88.416 104.802 88.1973 104.697C87.9785 104.588 87.7096 104.533 87.3906 104.533C87.0762 104.533 86.7891 104.599 86.5293 104.731C86.2741 104.864 86.0531 105.046 85.8662 105.278C85.6839 105.511 85.5404 105.777 85.4355 106.078C85.3353 106.374 85.2852 106.689 85.2852 107.021ZM95.0195 110.098C95.3203 110.098 95.5983 110.036 95.8535 109.913C96.1087 109.79 96.3184 109.621 96.4824 109.407C96.6465 109.188 96.7399 108.94 96.7627 108.662H97.9658C97.943 109.1 97.7949 109.507 97.5215 109.886C97.2526 110.259 96.8994 110.562 96.4619 110.795C96.0244 111.023 95.5436 111.137 95.0195 111.137C94.4635 111.137 93.9782 111.039 93.5635 110.843C93.1533 110.647 92.8115 110.378 92.5381 110.036C92.2692 109.694 92.0664 109.302 91.9297 108.86C91.7975 108.414 91.7314 107.942 91.7314 107.445V107.158C91.7314 106.661 91.7975 106.192 91.9297 105.75C92.0664 105.303 92.2692 104.909 92.5381 104.567C92.8115 104.226 93.1533 103.957 93.5635 103.761C93.9782 103.565 94.4635 103.467 95.0195 103.467C95.5983 103.467 96.1042 103.585 96.5371 103.822C96.9701 104.055 97.3096 104.374 97.5557 104.779C97.8063 105.18 97.943 105.636 97.9658 106.146H96.7627C96.7399 105.841 96.6533 105.565 96.5029 105.319C96.3571 105.073 96.1566 104.877 95.9014 104.731C95.6507 104.581 95.3568 104.506 95.0195 104.506C94.6322 104.506 94.3063 104.583 94.042 104.738C93.7822 104.889 93.5749 105.094 93.4199 105.354C93.2695 105.609 93.1602 105.894 93.0918 106.208C93.028 106.518 92.9961 106.835 92.9961 107.158V107.445C92.9961 107.769 93.028 108.088 93.0918 108.402C93.1556 108.717 93.2627 109.002 93.4131 109.257C93.568 109.512 93.7754 109.717 94.0352 109.872C94.2995 110.022 94.6276 110.098 95.0195 110.098ZM102.457 111.137C101.942 111.137 101.475 111.05 101.056 110.877C100.641 110.699 100.283 110.451 99.9824 110.132C99.6862 109.813 99.4583 109.435 99.2988 108.997C99.1393 108.56 99.0596 108.081 99.0596 107.562V107.274C99.0596 106.673 99.1484 106.137 99.3262 105.668C99.5039 105.194 99.7454 104.793 100.051 104.465C100.356 104.137 100.702 103.888 101.09 103.72C101.477 103.551 101.878 103.467 102.293 103.467C102.822 103.467 103.277 103.558 103.66 103.74C104.048 103.923 104.364 104.178 104.61 104.506C104.856 104.829 105.039 105.212 105.157 105.654C105.276 106.092 105.335 106.57 105.335 107.09V107.657H99.8115V106.625H104.07V106.529C104.052 106.201 103.984 105.882 103.865 105.572C103.751 105.262 103.569 105.007 103.318 104.807C103.068 104.606 102.726 104.506 102.293 104.506C102.006 104.506 101.742 104.567 101.5 104.69C101.258 104.809 101.051 104.987 100.878 105.224C100.705 105.461 100.57 105.75 100.475 106.092C100.379 106.434 100.331 106.828 100.331 107.274V107.562C100.331 107.912 100.379 108.243 100.475 108.553C100.575 108.858 100.718 109.127 100.905 109.359C101.097 109.592 101.327 109.774 101.596 109.906C101.869 110.038 102.179 110.104 102.525 110.104C102.972 110.104 103.35 110.013 103.66 109.831C103.97 109.649 104.241 109.405 104.474 109.1L105.239 109.708C105.08 109.95 104.877 110.18 104.631 110.398C104.385 110.617 104.082 110.795 103.722 110.932C103.366 111.068 102.945 111.137 102.457 111.137Z" fill="#505050"/>
<path d="M212.855 100.086V101.873H211.977V100.086H212.855ZM212.75 109.654V111.219H211.877V109.654H212.75ZM213.922 107.803C213.922 107.568 213.869 107.357 213.764 107.17C213.658 106.982 213.484 106.811 213.242 106.654C213 106.498 212.676 106.354 212.27 106.221C211.777 106.068 211.352 105.883 210.992 105.664C210.637 105.445 210.361 105.174 210.166 104.85C209.975 104.525 209.879 104.133 209.879 103.672C209.879 103.191 209.982 102.777 210.189 102.43C210.396 102.082 210.689 101.814 211.068 101.627C211.447 101.439 211.893 101.346 212.404 101.346C212.803 101.346 213.158 101.406 213.471 101.527C213.783 101.645 214.047 101.82 214.262 102.055C214.48 102.289 214.646 102.576 214.76 102.916C214.877 103.256 214.936 103.648 214.936 104.094H213.857C213.857 103.832 213.826 103.592 213.764 103.373C213.701 103.154 213.607 102.965 213.482 102.805C213.357 102.641 213.205 102.516 213.025 102.43C212.846 102.34 212.639 102.295 212.404 102.295C212.076 102.295 211.805 102.352 211.59 102.465C211.379 102.578 211.223 102.738 211.121 102.945C211.02 103.148 210.969 103.385 210.969 103.654C210.969 103.904 211.02 104.123 211.121 104.311C211.223 104.498 211.395 104.668 211.637 104.82C211.883 104.969 212.221 105.115 212.65 105.26C213.154 105.42 213.582 105.609 213.934 105.828C214.285 106.043 214.553 106.309 214.736 106.625C214.92 106.938 215.012 107.326 215.012 107.791C215.012 108.295 214.898 108.721 214.672 109.068C214.445 109.412 214.127 109.674 213.717 109.854C213.307 110.033 212.826 110.123 212.275 110.123C211.943 110.123 211.615 110.078 211.291 109.988C210.967 109.898 210.674 109.752 210.412 109.549C210.15 109.342 209.941 109.07 209.785 108.734C209.629 108.395 209.551 107.979 209.551 107.486H210.641C210.641 107.818 210.688 108.094 210.781 108.312C210.879 108.527 211.008 108.699 211.168 108.828C211.328 108.953 211.504 109.043 211.695 109.098C211.891 109.148 212.084 109.174 212.275 109.174C212.627 109.174 212.924 109.119 213.166 109.01C213.412 108.896 213.6 108.736 213.729 108.529C213.857 108.322 213.922 108.08 213.922 107.803ZM222.904 101.422V110H221.82V102.775L219.635 103.572V102.594L222.734 101.422H222.904ZM227.193 108.711V109.584C227.193 109.939 227.104 110.314 226.924 110.709C226.744 111.107 226.492 111.439 226.168 111.705L225.553 111.277C225.678 111.105 225.783 110.93 225.869 110.75C225.955 110.574 226.02 110.391 226.062 110.199C226.109 110.012 226.133 109.812 226.133 109.602V108.711H227.193ZM234.225 107.129V108.02H228.061V107.381L231.881 101.469H232.766L231.816 103.18L229.291 107.129H234.225ZM233.035 101.469V110H231.951V101.469H233.035ZM236.791 105.201H237.564C237.943 105.201 238.256 105.139 238.502 105.014C238.752 104.885 238.938 104.711 239.059 104.492C239.184 104.27 239.246 104.02 239.246 103.742C239.246 103.414 239.191 103.139 239.082 102.916C238.973 102.693 238.809 102.525 238.59 102.412C238.371 102.299 238.094 102.242 237.758 102.242C237.453 102.242 237.184 102.303 236.949 102.424C236.719 102.541 236.537 102.709 236.404 102.928C236.275 103.146 236.211 103.404 236.211 103.701H235.127C235.127 103.268 235.236 102.873 235.455 102.518C235.674 102.162 235.98 101.879 236.375 101.668C236.773 101.457 237.234 101.352 237.758 101.352C238.273 101.352 238.725 101.443 239.111 101.627C239.498 101.807 239.799 102.076 240.014 102.436C240.229 102.791 240.336 103.234 240.336 103.766C240.336 103.98 240.285 104.211 240.184 104.457C240.086 104.699 239.932 104.926 239.721 105.137C239.514 105.348 239.244 105.521 238.912 105.658C238.58 105.791 238.182 105.857 237.717 105.857H236.791V105.201ZM236.791 106.092V105.441H237.717C238.26 105.441 238.709 105.506 239.064 105.635C239.42 105.764 239.699 105.936 239.902 106.15C240.109 106.365 240.254 106.602 240.336 106.859C240.422 107.113 240.465 107.367 240.465 107.621C240.465 108.02 240.396 108.373 240.26 108.682C240.127 108.99 239.938 109.252 239.691 109.467C239.449 109.682 239.164 109.844 238.836 109.953C238.508 110.062 238.15 110.117 237.764 110.117C237.393 110.117 237.043 110.064 236.715 109.959C236.391 109.854 236.104 109.701 235.854 109.502C235.604 109.299 235.408 109.051 235.268 108.758C235.127 108.461 235.057 108.123 235.057 107.744H236.141C236.141 108.041 236.205 108.301 236.334 108.523C236.467 108.746 236.654 108.92 236.896 109.045C237.143 109.166 237.432 109.227 237.764 109.227C238.096 109.227 238.381 109.17 238.619 109.057C238.861 108.939 239.047 108.764 239.176 108.529C239.309 108.295 239.375 108 239.375 107.645C239.375 107.289 239.301 106.998 239.152 106.771C239.004 106.541 238.793 106.371 238.52 106.262C238.25 106.148 237.932 106.092 237.564 106.092H236.791ZM247.314 105.055V106.355C247.314 107.055 247.252 107.645 247.127 108.125C247.002 108.605 246.822 108.992 246.588 109.285C246.354 109.578 246.07 109.791 245.738 109.924C245.41 110.053 245.039 110.117 244.625 110.117C244.297 110.117 243.994 110.076 243.717 109.994C243.439 109.912 243.189 109.781 242.967 109.602C242.748 109.418 242.561 109.18 242.404 108.887C242.248 108.594 242.129 108.238 242.047 107.82C241.965 107.402 241.924 106.914 241.924 106.355V105.055C241.924 104.355 241.986 103.77 242.111 103.297C242.24 102.824 242.422 102.445 242.656 102.16C242.891 101.871 243.172 101.664 243.5 101.539C243.832 101.414 244.203 101.352 244.613 101.352C244.945 101.352 245.25 101.393 245.527 101.475C245.809 101.553 246.059 101.68 246.277 101.855C246.496 102.027 246.682 102.258 246.834 102.547C246.99 102.832 247.109 103.182 247.191 103.596C247.273 104.01 247.314 104.496 247.314 105.055ZM246.225 106.531V104.873C246.225 104.49 246.201 104.154 246.154 103.865C246.111 103.572 246.047 103.322 245.961 103.115C245.875 102.908 245.766 102.74 245.633 102.611C245.504 102.482 245.354 102.389 245.182 102.33C245.014 102.268 244.824 102.236 244.613 102.236C244.355 102.236 244.127 102.285 243.928 102.383C243.729 102.477 243.561 102.627 243.424 102.834C243.291 103.041 243.189 103.312 243.119 103.648C243.049 103.984 243.014 104.393 243.014 104.873V106.531C243.014 106.914 243.035 107.252 243.078 107.545C243.125 107.838 243.193 108.092 243.283 108.307C243.373 108.518 243.482 108.691 243.611 108.828C243.74 108.965 243.889 109.066 244.057 109.133C244.229 109.195 244.418 109.227 244.625 109.227C244.891 109.227 245.123 109.176 245.322 109.074C245.521 108.973 245.688 108.814 245.82 108.6C245.957 108.381 246.059 108.102 246.125 107.762C246.191 107.418 246.225 107.008 246.225 106.531Z" fill="#8F8F8F"/>
<path fill-rule="evenodd" clip-rule="evenodd" d="M34.6186 137.347L36.6531 139.381L34.6186 141.416L32.5841 139.381L34.6186 137.347ZM33.7795 136.348C34.2429 135.884 34.9943 135.884 35.4578 136.348L37.6525 138.542C38.1159 139.006 38.1159 139.757 37.6525 140.221L35.4578 142.415C34.9943 142.879 34.2429 142.879 33.7795 142.415L31.5847 140.221C31.1213 139.757 31.1213 139.006 31.5847 138.542L33.7795 136.348ZM23.106 137.681L19.706 137.681L19.706 141.081H23.106V137.681ZM34.6186 150.927C33.6797 150.927 32.9186 151.688 32.9186 152.627C32.9186 153.566 33.6797 154.327 34.6186 154.327C35.5575 154.327 36.3186 153.566 36.3186 152.627C36.3186 151.688 35.5575 150.927 34.6186 150.927ZM18.406 137.681C18.406 136.963 18.988 136.381 19.706 136.381H23.106C23.824 136.381 24.406 136.963 24.406 137.681V141.081C24.406 141.799 23.824 142.381 23.106 142.381H19.706C18.988 142.381 18.406 141.799 18.406 141.081V137.681ZM34.6186 149.627C32.9617 149.627 31.6186 150.97 31.6186 152.627C31.6186 154.283 32.9617 155.627 34.6186 155.627C36.2754 155.627 37.6186 154.283 37.6186 152.627C37.6186 150.97 36.2754 149.627 34.6186 149.627Z" fill="#505050"/>
<path d="M34.6185 144.059C34.9775 144.059 35.2685 144.35 35.2685 144.709V147.672C35.2685 148.031 34.9775 148.322 34.6185 148.322C34.2595 148.322 33.9685 148.031 33.9685 147.672V144.709C33.9685 144.35 34.2595 144.059 34.6185 144.059Z" fill="#505050"/>
<path d="M26.3571 138.731C25.9981 138.731 25.7071 139.022 25.7071 139.381C25.7071 139.74 25.9981 140.031 26.3571 140.031H29.2875C29.6465 140.031 29.9375 139.74 29.9375 139.381C29.9375 139.022 29.6465 138.731 29.2875 138.731H26.3571Z" fill="#505050"/>
<path d="M27.74 151.958L26.227 150.496C25.9732 150.243 25.9732 149.831 26.227 149.577C26.4808 149.323 26.8924 149.323 27.1462 149.577L30.1222 152.149C30.376 152.403 30.376 152.814 30.1222 153.068L27.154 155.632C26.9002 155.886 26.4886 155.886 26.2348 155.632C25.981 155.378 25.981 154.967 26.2348 154.713L27.739 153.259H24.4116C22.3958 153.259 20.7616 151.625 20.7616 149.609V144.332C20.7616 143.973 21.0526 143.682 21.4116 143.682C21.7706 143.682 22.0616 143.973 22.0616 144.332V149.609C22.0616 150.907 23.1138 151.959 24.4116 151.959L27.74 151.958Z" fill="#505050"/>
<path d="M63.1641 147.835H64.4766C64.4082 148.464 64.2282 149.027 63.9365 149.523C63.6449 150.02 63.2324 150.414 62.6992 150.706C62.166 150.993 61.5007 151.137 60.7031 151.137C60.1198 151.137 59.5889 151.027 59.1104 150.809C58.6364 150.59 58.2285 150.28 57.8867 149.879C57.5449 149.473 57.2806 148.988 57.0938 148.423C56.9115 147.853 56.8203 147.22 56.8203 146.522V145.531C56.8203 144.834 56.9115 144.203 57.0938 143.638C57.2806 143.068 57.5472 142.58 57.8936 142.175C58.2445 141.769 58.666 141.457 59.1582 141.238C59.6504 141.02 60.2041 140.91 60.8193 140.91C61.5713 140.91 62.207 141.051 62.7266 141.334C63.2461 141.617 63.6494 142.008 63.9365 142.51C64.2282 143.007 64.4082 143.583 64.4766 144.239H63.1641C63.1003 143.774 62.9818 143.376 62.8086 143.043C62.6354 142.706 62.3893 142.446 62.0703 142.264C61.7513 142.081 61.3343 141.99 60.8193 141.99C60.3773 141.99 59.9876 142.075 59.6504 142.243C59.3177 142.412 59.0374 142.651 58.8096 142.961C58.5863 143.271 58.4176 143.642 58.3037 144.075C58.1898 144.508 58.1328 144.989 58.1328 145.518V146.522C58.1328 147.01 58.1829 147.468 58.2832 147.896C58.388 148.325 58.5452 148.701 58.7549 149.024C58.9645 149.348 59.2311 149.603 59.5547 149.79C59.8783 149.972 60.2611 150.063 60.7031 150.063C61.2637 150.063 61.7103 149.975 62.043 149.797C62.3757 149.619 62.6263 149.364 62.7949 149.031C62.9681 148.699 63.0911 148.3 63.1641 147.835ZM65.748 147.384V147.227C65.748 146.693 65.8255 146.199 65.9805 145.743C66.1354 145.283 66.3587 144.884 66.6504 144.547C66.9421 144.205 67.2952 143.941 67.71 143.754C68.1247 143.562 68.5895 143.467 69.1045 143.467C69.624 143.467 70.0911 143.562 70.5059 143.754C70.9251 143.941 71.2806 144.205 71.5723 144.547C71.8685 144.884 72.0941 145.283 72.249 145.743C72.404 146.199 72.4814 146.693 72.4814 147.227V147.384C72.4814 147.917 72.404 148.411 72.249 148.867C72.0941 149.323 71.8685 149.722 71.5723 150.063C71.2806 150.401 70.9274 150.665 70.5127 150.856C70.1025 151.043 69.6377 151.137 69.1182 151.137C68.5986 151.137 68.1315 151.043 67.7168 150.856C67.3021 150.665 66.9466 150.401 66.6504 150.063C66.3587 149.722 66.1354 149.323 65.9805 148.867C65.8255 148.411 65.748 147.917 65.748 147.384ZM67.0127 147.227V147.384C67.0127 147.753 67.056 148.102 67.1426 148.43C67.2292 148.753 67.359 149.04 67.5322 149.291C67.71 149.542 67.931 149.74 68.1953 149.886C68.4596 150.027 68.7673 150.098 69.1182 150.098C69.4645 150.098 69.7676 150.027 70.0273 149.886C70.2917 149.74 70.5104 149.542 70.6836 149.291C70.8568 149.04 70.9867 148.753 71.0732 148.43C71.1644 148.102 71.21 147.753 71.21 147.384V147.227C71.21 146.862 71.1644 146.518 71.0732 146.194C70.9867 145.866 70.8545 145.577 70.6768 145.326C70.5036 145.071 70.2848 144.87 70.0205 144.725C69.7607 144.579 69.4554 144.506 69.1045 144.506C68.7581 144.506 68.4528 144.579 68.1885 144.725C67.9287 144.87 67.71 145.071 67.5322 145.326C67.359 145.577 67.2292 145.866 67.1426 146.194C67.056 146.518 67.0127 146.862 67.0127 147.227ZM75.332 145.183V151H74.0674V143.604H75.2637L75.332 145.183ZM75.0312 147.021L74.5049 147.001C74.5094 146.495 74.5846 146.028 74.7305 145.6C74.8763 145.167 75.0814 144.791 75.3457 144.472C75.61 144.153 75.9245 143.907 76.2891 143.733C76.6582 143.556 77.0661 143.467 77.5127 143.467C77.8773 143.467 78.2054 143.517 78.4971 143.617C78.7887 143.713 79.0371 143.868 79.2422 144.082C79.4518 144.296 79.6113 144.574 79.7207 144.916C79.8301 145.253 79.8848 145.666 79.8848 146.153V151H78.6133V146.14C78.6133 145.752 78.5563 145.442 78.4424 145.21C78.3285 144.973 78.1621 144.802 77.9434 144.697C77.7246 144.588 77.4557 144.533 77.1367 144.533C76.8223 144.533 76.5352 144.599 76.2754 144.731C76.0202 144.864 75.7992 145.046 75.6123 145.278C75.43 145.511 75.2865 145.777 75.1816 146.078C75.0814 146.374 75.0312 146.689 75.0312 147.021ZM83.0703 145.183V151H81.8057V143.604H83.002L83.0703 145.183ZM82.7695 147.021L82.2432 147.001C82.2477 146.495 82.3229 146.028 82.4688 145.6C82.6146 145.167 82.8197 144.791 83.084 144.472C83.3483 144.153 83.6628 143.907 84.0273 143.733C84.3965 143.556 84.8044 143.467 85.251 143.467C85.6156 143.467 85.9437 143.517 86.2354 143.617C86.527 143.713 86.7754 143.868 86.9805 144.082C87.1901 144.296 87.3496 144.574 87.459 144.916C87.5684 145.253 87.623 145.666 87.623 146.153V151H86.3516V146.14C86.3516 145.752 86.2946 145.442 86.1807 145.21C86.0667 144.973 85.9004 144.802 85.6816 144.697C85.4629 144.588 85.194 144.533 84.875 144.533C84.5605 144.533 84.2734 144.599 84.0137 144.731C83.7585 144.864 83.5374 145.046 83.3506 145.278C83.1683 145.511 83.0247 145.777 82.9199 146.078C82.8197 146.374 82.7695 146.689 82.7695 147.021ZM92.6133 151.137C92.0983 151.137 91.6312 151.05 91.2119 150.877C90.7972 150.699 90.4395 150.451 90.1387 150.132C89.8424 149.813 89.6146 149.435 89.4551 148.997C89.2956 148.56 89.2158 148.081 89.2158 147.562V147.274C89.2158 146.673 89.3047 146.137 89.4824 145.668C89.6602 145.194 89.9017 144.793 90.207 144.465C90.5124 144.137 90.8587 143.888 91.2461 143.72C91.6335 143.551 92.0345 143.467 92.4492 143.467C92.9779 143.467 93.4336 143.558 93.8164 143.74C94.2038 143.923 94.5205 144.178 94.7666 144.506C95.0127 144.829 95.195 145.212 95.3135 145.654C95.432 146.092 95.4912 146.57 95.4912 147.09V147.657H89.9678V146.625H94.2266V146.529C94.2083 146.201 94.14 145.882 94.0215 145.572C93.9076 145.262 93.7253 145.007 93.4746 144.807C93.224 144.606 92.8822 144.506 92.4492 144.506C92.1621 144.506 91.8978 144.567 91.6562 144.69C91.4147 144.809 91.2074 144.987 91.0342 145.224C90.861 145.461 90.7266 145.75 90.6309 146.092C90.5352 146.434 90.4873 146.828 90.4873 147.274V147.562C90.4873 147.912 90.5352 148.243 90.6309 148.553C90.7311 148.858 90.8747 149.127 91.0615 149.359C91.2529 149.592 91.4831 149.774 91.752 149.906C92.0254 150.038 92.3353 150.104 92.6816 150.104C93.1283 150.104 93.5065 150.013 93.8164 149.831C94.1263 149.649 94.3975 149.405 94.6299 149.1L95.3955 149.708C95.236 149.95 95.0332 150.18 94.7871 150.398C94.541 150.617 94.238 150.795 93.8779 150.932C93.5225 151.068 93.1009 151.137 92.6133 151.137ZM99.9277 150.098C100.229 150.098 100.507 150.036 100.762 149.913C101.017 149.79 101.227 149.621 101.391 149.407C101.555 149.188 101.648 148.94 101.671 148.662H102.874C102.851 149.1 102.703 149.507 102.43 149.886C102.161 150.259 101.808 150.562 101.37 150.795C100.933 151.023 100.452 151.137 99.9277 151.137C99.3717 151.137 98.8864 151.039 98.4717 150.843C98.0615 150.647 97.7197 150.378 97.4463 150.036C97.1774 149.694 96.9746 149.302 96.8379 148.86C96.7057 148.414 96.6396 147.942 96.6396 147.445V147.158C96.6396 146.661 96.7057 146.192 96.8379 145.75C96.9746 145.303 97.1774 144.909 97.4463 144.567C97.7197 144.226 98.0615 143.957 98.4717 143.761C98.8864 143.565 99.3717 143.467 99.9277 143.467C100.507 143.467 101.012 143.585 101.445 143.822C101.878 144.055 102.218 144.374 102.464 144.779C102.715 145.18 102.851 145.636 102.874 146.146H101.671C101.648 145.841 101.562 145.565 101.411 145.319C101.265 145.073 101.065 144.877 100.81 144.731C100.559 144.581 100.265 144.506 99.9277 144.506C99.5404 144.506 99.2145 144.583 98.9502 144.738C98.6904 144.889 98.4831 145.094 98.3281 145.354C98.1777 145.609 98.0684 145.894 98 146.208C97.9362 146.518 97.9043 146.835 97.9043 147.158V147.445C97.9043 147.769 97.9362 148.088 98 148.402C98.0638 148.717 98.1709 149.002 98.3213 149.257C98.4762 149.512 98.6836 149.717 98.9434 149.872C99.2077 150.022 99.5358 150.098 99.9277 150.098ZM107.393 143.604V144.574H103.394V143.604H107.393ZM104.747 141.806H106.012V149.168C106.012 149.419 106.05 149.608 106.128 149.735C106.205 149.863 106.306 149.947 106.429 149.988C106.552 150.029 106.684 150.05 106.825 150.05C106.93 150.05 107.039 150.041 107.153 150.022C107.272 150 107.361 149.981 107.42 149.968L107.427 151C107.326 151.032 107.194 151.062 107.03 151.089C106.871 151.121 106.677 151.137 106.449 151.137C106.139 151.137 105.854 151.075 105.595 150.952C105.335 150.829 105.128 150.624 104.973 150.337C104.822 150.045 104.747 149.653 104.747 149.161V141.806ZM110.25 143.604V151H108.979V143.604H110.25ZM108.883 141.642C108.883 141.437 108.944 141.263 109.067 141.122C109.195 140.981 109.382 140.91 109.628 140.91C109.869 140.91 110.054 140.981 110.182 141.122C110.314 141.263 110.38 141.437 110.38 141.642C110.38 141.838 110.314 142.006 110.182 142.147C110.054 142.284 109.869 142.353 109.628 142.353C109.382 142.353 109.195 142.284 109.067 142.147C108.944 142.006 108.883 141.838 108.883 141.642ZM111.945 147.384V147.227C111.945 146.693 112.023 146.199 112.178 145.743C112.333 145.283 112.556 144.884 112.848 144.547C113.139 144.205 113.493 143.941 113.907 143.754C114.322 143.562 114.787 143.467 115.302 143.467C115.821 143.467 116.288 143.562 116.703 143.754C117.122 143.941 117.478 144.205 117.77 144.547C118.066 144.884 118.291 145.283 118.446 145.743C118.601 146.199 118.679 146.693 118.679 147.227V147.384C118.679 147.917 118.601 148.411 118.446 148.867C118.291 149.323 118.066 149.722 117.77 150.063C117.478 150.401 117.125 150.665 116.71 150.856C116.3 151.043 115.835 151.137 115.315 151.137C114.796 151.137 114.329 151.043 113.914 150.856C113.499 150.665 113.144 150.401 112.848 150.063C112.556 149.722 112.333 149.323 112.178 148.867C112.023 148.411 111.945 147.917 111.945 147.384ZM113.21 147.227V147.384C113.21 147.753 113.253 148.102 113.34 148.43C113.426 148.753 113.556 149.04 113.729 149.291C113.907 149.542 114.128 149.74 114.393 149.886C114.657 150.027 114.965 150.098 115.315 150.098C115.662 150.098 115.965 150.027 116.225 149.886C116.489 149.74 116.708 149.542 116.881 149.291C117.054 149.04 117.184 148.753 117.271 148.43C117.362 148.102 117.407 147.753 117.407 147.384V147.227C117.407 146.862 117.362 146.518 117.271 146.194C117.184 145.866 117.052 145.577 116.874 145.326C116.701 145.071 116.482 144.87 116.218 144.725C115.958 144.579 115.653 144.506 115.302 144.506C114.955 144.506 114.65 144.579 114.386 144.725C114.126 144.87 113.907 145.071 113.729 145.326C113.556 145.577 113.426 145.866 113.34 146.194C113.253 146.518 113.21 146.862 113.21 147.227ZM121.529 145.183V151H120.265V143.604H121.461L121.529 145.183ZM121.229 147.021L120.702 147.001C120.707 146.495 120.782 146.028 120.928 145.6C121.074 145.167 121.279 144.791 121.543 144.472C121.807 144.153 122.122 143.907 122.486 143.733C122.855 143.556 123.263 143.467 123.71 143.467C124.075 143.467 124.403 143.517 124.694 143.617C124.986 143.713 125.234 143.868 125.439 144.082C125.649 144.296 125.809 144.574 125.918 144.916C126.027 145.253 126.082 145.666 126.082 146.153V151H124.811V146.14C124.811 145.752 124.754 145.442 124.64 145.21C124.526 144.973 124.359 144.802 124.141 144.697C123.922 144.588 123.653 144.533 123.334 144.533C123.02 144.533 122.732 144.599 122.473 144.731C122.217 144.864 121.996 145.046 121.81 145.278C121.627 145.511 121.484 145.777 121.379 146.078C121.279 146.374 121.229 146.689 121.229 147.021ZM132.31 149.038C132.31 148.856 132.269 148.687 132.187 148.532C132.109 148.373 131.947 148.229 131.701 148.102C131.46 147.969 131.095 147.855 130.607 147.76C130.197 147.673 129.826 147.571 129.493 147.452C129.165 147.334 128.885 147.19 128.652 147.021C128.424 146.853 128.249 146.655 128.126 146.427C128.003 146.199 127.941 145.932 127.941 145.627C127.941 145.335 128.005 145.06 128.133 144.8C128.265 144.54 128.45 144.31 128.687 144.109C128.928 143.909 129.217 143.752 129.555 143.638C129.892 143.524 130.268 143.467 130.683 143.467C131.275 143.467 131.781 143.572 132.2 143.781C132.619 143.991 132.941 144.271 133.164 144.622C133.387 144.968 133.499 145.354 133.499 145.777H132.234C132.234 145.572 132.173 145.374 132.05 145.183C131.931 144.987 131.756 144.825 131.523 144.697C131.296 144.57 131.015 144.506 130.683 144.506C130.332 144.506 130.047 144.561 129.828 144.67C129.614 144.775 129.457 144.909 129.356 145.073C129.261 145.237 129.213 145.41 129.213 145.593C129.213 145.729 129.236 145.853 129.281 145.962C129.331 146.067 129.418 146.165 129.541 146.256C129.664 146.342 129.837 146.424 130.061 146.502C130.284 146.579 130.569 146.657 130.915 146.734C131.521 146.871 132.02 147.035 132.412 147.227C132.804 147.418 133.096 147.653 133.287 147.931C133.479 148.209 133.574 148.546 133.574 148.942C133.574 149.266 133.506 149.562 133.369 149.831C133.237 150.1 133.043 150.332 132.788 150.528C132.537 150.72 132.237 150.87 131.886 150.979C131.539 151.084 131.15 151.137 130.717 151.137C130.065 151.137 129.514 151.021 129.062 150.788C128.611 150.556 128.27 150.255 128.037 149.886C127.805 149.517 127.688 149.127 127.688 148.717H128.96C128.978 149.063 129.078 149.339 129.261 149.544C129.443 149.744 129.666 149.888 129.931 149.975C130.195 150.057 130.457 150.098 130.717 150.098C131.063 150.098 131.353 150.052 131.585 149.961C131.822 149.87 132.002 149.744 132.125 149.585C132.248 149.425 132.31 149.243 132.31 149.038Z" fill="#505050"/>
<rect x="224" y="138" width="24" height="16" rx="8" fill="#E33939"/>
<path d="M229.567 150H235.171V148.944H230.791V148.932L231.223 148.596C233.563 146.772 235.051 145.668 235.051 143.868C235.051 142.248 233.779 141.504 232.303 141.504C231.631 141.504 230.791 141.612 229.867 141.996V143.148C230.455 142.824 231.187 142.56 232.111 142.56C233.191 142.56 233.899 143.028 233.899 144.06C233.899 145.212 232.951 146.076 231.055 147.588C230.539 147.996 230.071 148.38 229.567 148.8V150ZM239.336 141.48C237.632 141.48 236.66 142.668 236.66 144.228C236.66 145.86 237.704 146.868 239.204 146.868C240.2 146.868 240.824 146.436 241.196 145.872C241.22 147.708 240.548 149.064 238.892 149.064C238.4 149.064 237.764 148.968 237.308 148.788V149.892C237.764 150.048 238.388 150.12 238.904 150.12C241.304 150.12 242.24 148.152 242.24 145.5C242.24 143.592 241.544 141.48 239.336 141.48ZM239.324 142.44C240.428 142.44 240.968 143.244 240.968 144.228C240.968 145.176 240.38 145.884 239.324 145.884C238.292 145.884 237.812 145.152 237.812 144.228C237.812 143.22 238.316 142.44 239.324 142.44Z" fill="white"/>
<path fill-rule="evenodd" clip-rule="evenodd" d="M25.8277 177C23.1626 177 21.0913 179.32 21.3922 181.968L21.6542 184.274C21.8954 186.397 23.6914 188 25.8277 188C27.9639 188 29.7599 186.397 30.0011 184.274L30.2631 181.968C30.564 179.32 28.4927 177 25.8277 177ZM28.7094 184.127L28.9714 181.821C29.1847 179.944 27.7166 178.3 25.8277 178.3C23.9387 178.3 22.4706 179.944 22.6839 181.821L22.9459 184.127C23.1125 185.593 24.3526 186.7 25.8277 186.7C27.3027 186.7 28.5428 185.593 28.7094 184.127Z" fill="#505050"/>
<path fill-rule="evenodd" clip-rule="evenodd" d="M23.974 189C21.1618 189 18.7269 190.953 18.1169 193.698L18.017 194.148C17.9198 194.585 18.2525 195 18.7003 195H32.955C33.4028 195 33.7355 194.585 33.6384 194.148L33.5384 193.698C32.9284 190.953 30.4935 189 27.6813 189H23.974ZM32.198 193.7C31.6229 191.698 29.7872 190.3 27.6813 190.3H23.974C21.8681 190.3 20.0324 191.698 19.4573 193.7H32.198Z" fill="#505050"/>
<path d="M30.1723 188C29.7922 188 29.6567 187.538 29.8947 187.242C29.9416 187.183 29.9873 187.124 30.0319 187.064C30.196 186.842 30.4473 186.7 30.7187 186.648C31.9438 186.414 32.9086 185.408 33.0541 184.127L33.3161 181.821C33.497 180.229 32.4683 178.805 30.9991 178.409C30.6467 178.314 30.3183 178.127 30.0889 177.843C30.0392 177.781 29.9884 177.721 29.9363 177.662C29.7152 177.41 29.8373 177 30.1723 177C32.8374 177 34.9087 179.32 34.6078 181.968L34.3458 184.274C34.1046 186.397 32.3086 188 30.1723 188Z" fill="#505050"/>
<path d="M35.3143 195C34.9716 195 34.7274 194.648 34.7236 194.306C34.7202 193.992 34.9448 193.7 35.2587 193.7H36.5427C36.1057 192.179 34.9407 191.006 33.4824 190.531C33.2738 190.463 33.0977 190.364 32.9626 190.191C32.5991 189.726 32.9161 189.037 33.4889 189.18C35.65 189.723 37.382 191.444 37.8831 193.698L37.983 194.148C38.0802 194.585 37.7475 195 37.2997 195H35.3143Z" fill="#505050"/>
<path d="M58.4746 181.047V191H57.1553V181.047H58.4746ZM62.6445 185.524V186.604H58.1875V185.524H62.6445ZM63.3213 181.047V182.127H58.1875V181.047H63.3213ZM65.7891 184.766V191H64.5244V183.604H65.7549L65.7891 184.766ZM68.0996 183.562L68.0928 184.738C67.988 184.715 67.8877 184.702 67.792 184.697C67.7008 184.688 67.596 184.684 67.4775 184.684C67.1859 184.684 66.9284 184.729 66.7051 184.82C66.4818 184.911 66.2926 185.039 66.1377 185.203C65.9827 185.367 65.8597 185.563 65.7686 185.791C65.682 186.014 65.625 186.26 65.5977 186.529L65.2422 186.734C65.2422 186.288 65.2855 185.868 65.3721 185.477C65.4632 185.085 65.6022 184.738 65.7891 184.438C65.9759 184.132 66.2129 183.895 66.5 183.727C66.7917 183.553 67.138 183.467 67.5391 183.467C67.6302 183.467 67.735 183.478 67.8535 183.501C67.972 183.519 68.054 183.54 68.0996 183.562ZM70.6426 183.604V191H69.3711V183.604H70.6426ZM69.2754 181.642C69.2754 181.437 69.3369 181.263 69.46 181.122C69.5876 180.981 69.7744 180.91 70.0205 180.91C70.262 180.91 70.4466 180.981 70.5742 181.122C70.7064 181.263 70.7725 181.437 70.7725 181.642C70.7725 181.838 70.7064 182.006 70.5742 182.147C70.4466 182.284 70.262 182.353 70.0205 182.353C69.7744 182.353 69.5876 182.284 69.46 182.147C69.3369 182.006 69.2754 181.838 69.2754 181.642ZM75.7422 191.137C75.2272 191.137 74.7601 191.05 74.3408 190.877C73.9261 190.699 73.5684 190.451 73.2676 190.132C72.9714 189.813 72.7435 189.435 72.584 188.997C72.4245 188.56 72.3447 188.081 72.3447 187.562V187.274C72.3447 186.673 72.4336 186.137 72.6113 185.668C72.7891 185.194 73.0306 184.793 73.3359 184.465C73.6413 184.137 73.9876 183.888 74.375 183.72C74.7624 183.551 75.1634 183.467 75.5781 183.467C76.1068 183.467 76.5625 183.558 76.9453 183.74C77.3327 183.923 77.6494 184.178 77.8955 184.506C78.1416 184.829 78.3239 185.212 78.4424 185.654C78.5609 186.092 78.6201 186.57 78.6201 187.09V187.657H73.0967V186.625H77.3555V186.529C77.3372 186.201 77.2689 185.882 77.1504 185.572C77.0365 185.262 76.8542 185.007 76.6035 184.807C76.3529 184.606 76.0111 184.506 75.5781 184.506C75.291 184.506 75.0267 184.567 74.7852 184.69C74.5436 184.809 74.3363 184.987 74.1631 185.224C73.9899 185.461 73.8555 185.75 73.7598 186.092C73.6641 186.434 73.6162 186.828 73.6162 187.274V187.562C73.6162 187.912 73.6641 188.243 73.7598 188.553C73.86 188.858 74.0036 189.127 74.1904 189.359C74.3818 189.592 74.612 189.774 74.8809 189.906C75.1543 190.038 75.4642 190.104 75.8105 190.104C76.2572 190.104 76.6354 190.013 76.9453 189.831C77.2552 189.649 77.5264 189.405 77.7588 189.1L78.5244 189.708C78.3649 189.95 78.1621 190.18 77.916 190.398C77.6699 190.617 77.3669 190.795 77.0068 190.932C76.6514 191.068 76.2298 191.137 75.7422 191.137ZM81.3613 185.183V191H80.0967V183.604H81.293L81.3613 185.183ZM81.0605 187.021L80.5342 187.001C80.5387 186.495 80.6139 186.028 80.7598 185.6C80.9056 185.167 81.1107 184.791 81.375 184.472C81.6393 184.153 81.9538 183.907 82.3184 183.733C82.6875 183.556 83.0954 183.467 83.542 183.467C83.9066 183.467 84.2347 183.517 84.5264 183.617C84.818 183.713 85.0664 183.868 85.2715 184.082C85.4811 184.296 85.6406 184.574 85.75 184.916C85.8594 185.253 85.9141 185.666 85.9141 186.153V191H84.6426V186.14C84.6426 185.752 84.5856 185.442 84.4717 185.21C84.3577 184.973 84.1914 184.802 83.9727 184.697C83.7539 184.588 83.485 184.533 83.166 184.533C82.8516 184.533 82.5645 184.599 82.3047 184.731C82.0495 184.864 81.8285 185.046 81.6416 185.278C81.4593 185.511 81.3158 185.777 81.2109 186.078C81.1107 186.374 81.0605 186.689 81.0605 187.021ZM92.4971 189.564V180.5H93.7686V191H92.6064L92.4971 189.564ZM87.5205 187.384V187.24C87.5205 186.675 87.5889 186.162 87.7256 185.702C87.8669 185.237 88.0651 184.839 88.3203 184.506C88.5801 184.173 88.8877 183.918 89.2432 183.74C89.6032 183.558 90.0042 183.467 90.4463 183.467C90.9111 183.467 91.3167 183.549 91.6631 183.713C92.014 183.872 92.3102 184.107 92.5518 184.417C92.7979 184.722 92.9915 185.091 93.1328 185.524C93.2741 185.957 93.3721 186.447 93.4268 186.994V187.623C93.3766 188.165 93.2786 188.653 93.1328 189.086C92.9915 189.519 92.7979 189.888 92.5518 190.193C92.3102 190.499 92.014 190.733 91.6631 190.897C91.3122 191.057 90.902 191.137 90.4326 191.137C89.9997 191.137 89.6032 191.043 89.2432 190.856C88.8877 190.67 88.5801 190.408 88.3203 190.07C88.0651 189.733 87.8669 189.337 87.7256 188.881C87.5889 188.421 87.5205 187.922 87.5205 187.384ZM88.792 187.24V187.384C88.792 187.753 88.8285 188.099 88.9014 188.423C88.9788 188.746 89.0973 189.031 89.2568 189.277C89.4163 189.523 89.6191 189.717 89.8652 189.858C90.1113 189.995 90.4053 190.063 90.7471 190.063C91.1663 190.063 91.5104 189.975 91.7793 189.797C92.0527 189.619 92.2715 189.384 92.4355 189.093C92.5996 188.801 92.7272 188.484 92.8184 188.143V186.495C92.7637 186.244 92.6839 186.003 92.5791 185.771C92.4788 185.534 92.3467 185.324 92.1826 185.142C92.0231 184.955 91.8249 184.807 91.5879 184.697C91.3555 184.588 91.0798 184.533 90.7607 184.533C90.4144 184.533 90.1159 184.606 89.8652 184.752C89.6191 184.893 89.4163 185.089 89.2568 185.34C89.0973 185.586 88.9788 185.873 88.9014 186.201C88.8285 186.525 88.792 186.871 88.792 187.24ZM100.044 189.038C100.044 188.856 100.003 188.687 99.9209 188.532C99.8434 188.373 99.6816 188.229 99.4355 188.102C99.194 187.969 98.8294 187.855 98.3418 187.76C97.9316 187.673 97.5602 187.571 97.2275 187.452C96.8994 187.334 96.6191 187.19 96.3867 187.021C96.1589 186.853 95.9834 186.655 95.8604 186.427C95.7373 186.199 95.6758 185.932 95.6758 185.627C95.6758 185.335 95.7396 185.06 95.8672 184.8C95.9993 184.54 96.1839 184.31 96.4209 184.109C96.6624 183.909 96.9518 183.752 97.2891 183.638C97.6263 183.524 98.0023 183.467 98.417 183.467C99.0094 183.467 99.5153 183.572 99.9346 183.781C100.354 183.991 100.675 184.271 100.898 184.622C101.122 184.968 101.233 185.354 101.233 185.777H99.9688C99.9688 185.572 99.9072 185.374 99.7842 185.183C99.6657 184.987 99.4902 184.825 99.2578 184.697C99.0299 184.57 98.7497 184.506 98.417 184.506C98.0661 184.506 97.7812 184.561 97.5625 184.67C97.3483 184.775 97.1911 184.909 97.0908 185.073C96.9951 185.237 96.9473 185.41 96.9473 185.593C96.9473 185.729 96.9701 185.853 97.0156 185.962C97.0658 186.067 97.1523 186.165 97.2754 186.256C97.3984 186.342 97.5716 186.424 97.7949 186.502C98.0182 186.579 98.3031 186.657 98.6494 186.734C99.2555 186.871 99.7546 187.035 100.146 187.227C100.538 187.418 100.83 187.653 101.021 187.931C101.213 188.209 101.309 188.546 101.309 188.942C101.309 189.266 101.24 189.562 101.104 189.831C100.971 190.1 100.778 190.332 100.522 190.528C100.272 190.72 99.971 190.87 99.6201 190.979C99.2738 191.084 98.8841 191.137 98.4512 191.137C97.7995 191.137 97.248 191.021 96.7969 190.788C96.3457 190.556 96.0039 190.255 95.7715 189.886C95.5391 189.517 95.4229 189.127 95.4229 188.717H96.6943C96.7126 189.063 96.8128 189.339 96.9951 189.544C97.1774 189.744 97.4007 189.888 97.665 189.975C97.9294 190.057 98.1914 190.098 98.4512 190.098C98.7975 190.098 99.0869 190.052 99.3193 189.961C99.5563 189.87 99.7363 189.744 99.8594 189.585C99.9824 189.425 100.044 189.243 100.044 189.038Z" fill="#505050"/>
<line y1="213.5" x2="264" y2="213.5" stroke="#D3D8DE"/>
<path fill-rule="evenodd" clip-rule="evenodd" d="M24.88 242.65C24.131 242.65 23.53 243.251 23.53 244V245.32C23.53 246.069 24.131 246.67 24.88 246.67H27.2C27.949 246.67 28.55 246.069 28.55 245.32V244C28.55 243.251 27.949 242.65 27.2 242.65H24.88ZM24.83 244C24.83 243.981 24.8363 243.97 24.8434 243.963C24.8505 243.956 24.8612 243.95 24.88 243.95H27.2C27.2188 243.95 27.2296 243.956 27.2367 243.963C27.2437 243.97 27.25 243.981 27.25 244V245.32C27.25 245.339 27.2437 245.35 27.2367 245.357C27.2296 245.364 27.2188 245.37 27.2 245.37H24.88C24.8612 245.37 24.8505 245.364 24.8434 245.357C24.8363 245.35 24.83 245.339 24.83 245.32V244Z" fill="#505050"/>
<path fill-rule="evenodd" clip-rule="evenodd" d="M24.79 232.6C24.79 232.241 24.499 231.95 24.14 231.95C23.781 231.95 23.49 232.241 23.49 232.6V233.99H23C21.34 233.99 20 235.33 20 236.99V247.12C20 248.78 21.34 250.12 23 250.12H33C34.66 250.12 36 248.78 36 247.12V236.99C36 235.33 34.65 233.99 33 233.99H32.5V232.6C32.5 232.241 32.209 231.95 31.85 231.95C31.491 231.95 31.2 232.241 31.2 232.6V233.99H28.65V232.6C28.65 232.241 28.359 231.95 28 231.95C27.641 231.95 27.35 232.241 27.35 232.6V233.99H24.79V232.6ZM23.49 235.29V236.86C23.49 237.219 23.781 237.51 24.14 237.51C24.499 237.51 24.79 237.219 24.79 236.86V235.29H27.35V236.86C27.35 237.219 27.641 237.51 28 237.51C28.359 237.51 28.65 237.219 28.65 236.86V235.29H31.2V236.86C31.2 237.219 31.491 237.51 31.85 237.51C32.209 237.51 32.5 237.219 32.5 236.86V235.29H33C33.94 235.29 34.7 236.05 34.7 236.99V239.35H21.3V236.99C21.3 236.05 22.06 235.29 23 235.29H23.49ZM21.3 240.65H34.7V247.12C34.7 248.06 33.94 248.82 33 248.82H23C22.06 248.82 21.3 248.06 21.3 247.12V240.65Z" fill="#505050"/>
<path d="M63.4785 245.927V247H58.208V245.927H63.4785ZM58.4746 237.047V247H57.1553V237.047H58.4746ZM62.7812 241.326V242.399H58.208V241.326H62.7812ZM63.4102 237.047V238.127H58.208V237.047H63.4102ZM66.9922 245.858L69.0156 239.604H70.3076L67.6484 247H66.8008L66.9922 245.858ZM65.3037 239.604L67.3887 245.893L67.5322 247H66.6846L64.0049 239.604H65.3037ZM74.498 247.137C73.9831 247.137 73.516 247.05 73.0967 246.877C72.682 246.699 72.3242 246.451 72.0234 246.132C71.7272 245.813 71.4993 245.435 71.3398 244.997C71.1803 244.56 71.1006 244.081 71.1006 243.562V243.274C71.1006 242.673 71.1895 242.137 71.3672 241.668C71.5449 241.194 71.7865 240.793 72.0918 240.465C72.3971 240.137 72.7435 239.888 73.1309 239.72C73.5182 239.551 73.9193 239.467 74.334 239.467C74.8626 239.467 75.3184 239.558 75.7012 239.74C76.0885 239.923 76.4053 240.178 76.6514 240.506C76.8975 240.829 77.0798 241.212 77.1982 241.654C77.3167 242.092 77.376 242.57 77.376 243.09V243.657H71.8525V242.625H76.1113V242.529C76.0931 242.201 76.0247 241.882 75.9062 241.572C75.7923 241.262 75.61 241.007 75.3594 240.807C75.1087 240.606 74.7669 240.506 74.334 240.506C74.0469 240.506 73.7826 240.567 73.541 240.69C73.2995 240.809 73.0921 240.987 72.9189 241.224C72.7458 241.461 72.6113 241.75 72.5156 242.092C72.4199 242.434 72.3721 242.828 72.3721 243.274V243.562C72.3721 243.912 72.4199 244.243 72.5156 244.553C72.6159 244.858 72.7594 245.127 72.9463 245.359C73.1377 245.592 73.3678 245.774 73.6367 245.906C73.9102 246.038 74.2201 246.104 74.5664 246.104C75.013 246.104 75.3913 246.013 75.7012 245.831C76.0111 245.649 76.2822 245.405 76.5146 245.1L77.2803 245.708C77.1208 245.95 76.918 246.18 76.6719 246.398C76.4258 246.617 76.1227 246.795 75.7627 246.932C75.4072 247.068 74.9857 247.137 74.498 247.137ZM80.1172 241.183V247H78.8525V239.604H80.0488L80.1172 241.183ZM79.8164 243.021L79.29 243.001C79.2946 242.495 79.3698 242.028 79.5156 241.6C79.6615 241.167 79.8665 240.791 80.1309 240.472C80.3952 240.153 80.7096 239.907 81.0742 239.733C81.4434 239.556 81.8512 239.467 82.2979 239.467C82.6624 239.467 82.9906 239.517 83.2822 239.617C83.5739 239.713 83.8223 239.868 84.0273 240.082C84.237 240.296 84.3965 240.574 84.5059 240.916C84.6152 241.253 84.6699 241.666 84.6699 242.153V247H83.3984V242.14C83.3984 241.752 83.3415 241.442 83.2275 241.21C83.1136 240.973 82.9473 240.802 82.7285 240.697C82.5098 240.588 82.2409 240.533 81.9219 240.533C81.6074 240.533 81.3203 240.599 81.0605 240.731C80.8053 240.864 80.5843 241.046 80.3975 241.278C80.2152 241.511 80.0716 241.777 79.9668 242.078C79.8665 242.374 79.8164 242.689 79.8164 243.021ZM89.6875 239.604V240.574H85.6885V239.604H89.6875ZM87.042 237.806H88.3066V245.168C88.3066 245.419 88.3454 245.608 88.4229 245.735C88.5003 245.863 88.6006 245.947 88.7236 245.988C88.8467 246.029 88.9788 246.05 89.1201 246.05C89.2249 246.05 89.3343 246.041 89.4482 246.022C89.5667 246 89.6556 245.981 89.7148 245.968L89.7217 247C89.6214 247.032 89.4893 247.062 89.3252 247.089C89.1657 247.121 88.972 247.137 88.7441 247.137C88.4342 247.137 88.1494 247.075 87.8896 246.952C87.6299 246.829 87.4225 246.624 87.2676 246.337C87.1172 246.045 87.042 245.653 87.042 245.161V237.806ZM95.4775 245.038C95.4775 244.856 95.4365 244.687 95.3545 244.532C95.277 244.373 95.1152 244.229 94.8691 244.102C94.6276 243.969 94.263 243.855 93.7754 243.76C93.3652 243.673 92.9938 243.571 92.6611 243.452C92.333 243.334 92.0527 243.19 91.8203 243.021C91.5924 242.853 91.417 242.655 91.2939 242.427C91.1709 242.199 91.1094 241.932 91.1094 241.627C91.1094 241.335 91.1732 241.06 91.3008 240.8C91.4329 240.54 91.6175 240.31 91.8545 240.109C92.096 239.909 92.3854 239.752 92.7227 239.638C93.0599 239.524 93.4359 239.467 93.8506 239.467C94.443 239.467 94.9489 239.572 95.3682 239.781C95.7874 239.991 96.1087 240.271 96.332 240.622C96.5553 240.968 96.667 241.354 96.667 241.777H95.4023C95.4023 241.572 95.3408 241.374 95.2178 241.183C95.0993 240.987 94.9238 240.825 94.6914 240.697C94.4635 240.57 94.1833 240.506 93.8506 240.506C93.4997 240.506 93.2148 240.561 92.9961 240.67C92.7819 240.775 92.6247 240.909 92.5244 241.073C92.4287 241.237 92.3809 241.41 92.3809 241.593C92.3809 241.729 92.4036 241.853 92.4492 241.962C92.4993 242.067 92.5859 242.165 92.709 242.256C92.832 242.342 93.0052 242.424 93.2285 242.502C93.4518 242.579 93.7367 242.657 94.083 242.734C94.6891 242.871 95.1882 243.035 95.5801 243.227C95.972 243.418 96.2637 243.653 96.4551 243.931C96.6465 244.209 96.7422 244.546 96.7422 244.942C96.7422 245.266 96.6738 245.562 96.5371 245.831C96.4049 246.1 96.2113 246.332 95.9561 246.528C95.7054 246.72 95.4046 246.87 95.0537 246.979C94.7074 247.084 94.3177 247.137 93.8848 247.137C93.2331 247.137 92.6816 247.021 92.2305 246.788C91.7793 246.556 91.4375 246.255 91.2051 245.886C90.9727 245.517 90.8564 245.127 90.8564 244.717H92.1279C92.1462 245.063 92.2464 245.339 92.4287 245.544C92.611 245.744 92.8343 245.888 93.0986 245.975C93.363 246.057 93.625 246.098 93.8848 246.098C94.2311 246.098 94.5205 246.052 94.7529 245.961C94.9899 245.87 95.1699 245.744 95.293 245.585C95.416 245.425 95.4775 245.243 95.4775 245.038Z" fill="#505050"/>
<rect x="224" y="234" width="24" height="16" rx="8" fill="#47B091"/>
<path d="M233.275 246H234.355V244.032H235.639V243.048H234.355V237.6H232.759L229.291 243.036V244.032H233.275V246ZM230.503 243.048L233.251 238.668H233.275V243.048H230.503ZM238.712 246.096C240.8 246.096 242.156 245.148 242.156 243.264C242.156 241.62 240.992 240.672 239.192 240.672C238.796 240.672 238.544 240.708 238.112 240.792L238.232 238.656H241.676V237.6H237.284L237.044 241.968C237.596 241.764 238.34 241.656 238.892 241.656C240.176 241.656 241.004 242.112 241.004 243.288C241.004 244.536 240.128 245.064 238.592 245.064C237.98 245.064 237.572 244.968 236.78 244.692V245.784C237.38 246 238.076 246.096 238.712 246.096Z" fill="white"/>
<path fill-rule="evenodd" clip-rule="evenodd" d="M32.0001 282C32.0001 284.209 30.2092 286 28.0001 286C25.791 286 24.0001 284.209 24.0001 282C24.0001 279.791 25.791 278 28.0001 278C30.2092 278 32.0001 279.791 32.0001 282ZM30.7001 282C30.7001 283.491 29.4913 284.7 28.0001 284.7C26.5089 284.7 25.3001 283.491 25.3001 282C25.3001 280.509 26.5089 279.3 28.0001 279.3C29.4913 279.3 30.7001 280.509 30.7001 282Z" fill="#505050"/>
<path fill-rule="evenodd" clip-rule="evenodd" d="M26.9831 273.005C26.0974 273.005 25.3474 273.658 25.2256 274.535C25.0746 275.623 23.9399 276.279 22.9221 275.865C22.1015 275.532 21.1608 275.855 20.7179 276.622L19.7612 278.279C19.3237 279.037 19.5039 280.001 20.1856 280.549C21.0672 281.258 21.0527 282.626 20.1476 283.331C19.4487 283.875 19.2581 284.851 19.701 285.618L20.6577 287.275C21.0952 288.033 22.0197 288.359 22.8356 288.042C23.8906 287.634 25.0679 288.33 25.2256 289.466C25.3474 290.343 26.0974 290.997 26.9831 290.997H28.8966C29.7716 290.997 30.5159 290.359 30.6501 289.494C30.8324 288.318 32.0551 287.612 33.1646 288.042C33.9804 288.359 34.905 288.033 35.3425 287.275L36.2992 285.618C36.7421 284.851 36.5514 283.875 35.8526 283.331C34.9475 282.626 34.933 281.258 35.8146 280.549C36.4963 280.001 36.6765 279.037 36.239 278.279L35.2823 276.622C34.8394 275.855 33.8987 275.532 33.0781 275.865C32.0153 276.297 30.8235 275.625 30.6501 274.507C30.5159 273.643 29.7716 273.005 28.8966 273.005H26.9831ZM26.5132 274.714C26.5458 274.48 26.7463 274.305 26.9831 274.305L28.8966 274.305C29.1306 274.305 29.3296 274.475 29.3654 274.707C29.6698 276.669 31.7417 277.811 33.5671 277.07C33.7865 276.981 34.038 277.067 34.1564 277.272L35.1132 278.929C35.2301 279.132 35.182 279.389 34.9997 279.536C33.4525 280.781 33.4994 283.146 35.054 284.356C35.2408 284.502 35.2918 284.763 35.1734 284.968L34.2166 286.625C34.0997 286.828 33.8525 286.915 33.6344 286.83C31.7508 286.1 29.675 287.299 29.3654 289.295C29.3296 289.526 29.1305 289.697 28.8966 289.697H26.9831C26.7463 289.697 26.5458 289.522 26.5132 289.287C26.2424 287.336 24.2174 286.113 22.3658 286.83C22.1477 286.915 21.9005 286.828 21.7836 286.625L20.8268 284.968C20.7084 284.763 20.7594 284.502 20.9462 284.356C22.5008 283.146 22.5477 280.781 21.0005 279.536C20.8182 279.389 20.7701 279.132 20.887 278.929L21.8438 277.272C21.9622 277.067 22.2137 276.981 22.4331 277.07C24.2358 277.802 26.2458 276.641 26.5132 274.714Z" fill="#505050"/>
<path d="M60.8398 277.929L57.5449 287H56.1982L59.9922 277.047H60.8604L60.8398 277.929ZM63.6016 287L60.2998 277.929L60.2793 277.047H61.1475L64.9551 287H63.6016ZM63.4307 283.315V284.396H57.8389V283.315H63.4307ZM69.0566 286.098C69.3574 286.098 69.6354 286.036 69.8906 285.913C70.1458 285.79 70.3555 285.621 70.5195 285.407C70.6836 285.188 70.777 284.94 70.7998 284.662H72.0029C71.9801 285.1 71.832 285.507 71.5586 285.886C71.2897 286.259 70.9365 286.562 70.499 286.795C70.0615 287.023 69.5807 287.137 69.0566 287.137C68.5007 287.137 68.0153 287.039 67.6006 286.843C67.1904 286.647 66.8486 286.378 66.5752 286.036C66.3063 285.694 66.1035 285.302 65.9668 284.86C65.8346 284.414 65.7686 283.942 65.7686 283.445V283.158C65.7686 282.661 65.8346 282.192 65.9668 281.75C66.1035 281.303 66.3063 280.909 66.5752 280.567C66.8486 280.226 67.1904 279.957 67.6006 279.761C68.0153 279.565 68.5007 279.467 69.0566 279.467C69.6354 279.467 70.1413 279.585 70.5742 279.822C71.0072 280.055 71.3467 280.374 71.5928 280.779C71.8434 281.18 71.9801 281.636 72.0029 282.146H70.7998C70.777 281.841 70.6904 281.565 70.54 281.319C70.3942 281.073 70.1937 280.877 69.9385 280.731C69.6878 280.581 69.3939 280.506 69.0566 280.506C68.6693 280.506 68.3434 280.583 68.0791 280.738C67.8193 280.889 67.612 281.094 67.457 281.354C67.3066 281.609 67.1973 281.894 67.1289 282.208C67.0651 282.518 67.0332 282.835 67.0332 283.158V283.445C67.0332 283.769 67.0651 284.088 67.1289 284.402C67.1927 284.717 67.2998 285.002 67.4502 285.257C67.6051 285.512 67.8125 285.717 68.0723 285.872C68.3366 286.022 68.6647 286.098 69.0566 286.098ZM76.3848 286.098C76.6855 286.098 76.9635 286.036 77.2188 285.913C77.474 285.79 77.6836 285.621 77.8477 285.407C78.0117 285.188 78.1051 284.94 78.1279 284.662H79.3311C79.3083 285.1 79.1602 285.507 78.8867 285.886C78.6178 286.259 78.2646 286.562 77.8271 286.795C77.3896 287.023 76.9089 287.137 76.3848 287.137C75.8288 287.137 75.3434 287.039 74.9287 286.843C74.5186 286.647 74.1768 286.378 73.9033 286.036C73.6344 285.694 73.4316 285.302 73.2949 284.86C73.1628 284.414 73.0967 283.942 73.0967 283.445V283.158C73.0967 282.661 73.1628 282.192 73.2949 281.75C73.4316 281.303 73.6344 280.909 73.9033 280.567C74.1768 280.226 74.5186 279.957 74.9287 279.761C75.3434 279.565 75.8288 279.467 76.3848 279.467C76.9635 279.467 77.4694 279.585 77.9023 279.822C78.3353 280.055 78.6748 280.374 78.9209 280.779C79.1715 281.18 79.3083 281.636 79.3311 282.146H78.1279C78.1051 281.841 78.0186 281.565 77.8682 281.319C77.7223 281.073 77.5218 280.877 77.2666 280.731C77.016 280.581 76.722 280.506 76.3848 280.506C75.9974 280.506 75.6715 280.583 75.4072 280.738C75.1475 280.889 74.9401 281.094 74.7852 281.354C74.6348 281.609 74.5254 281.894 74.457 282.208C74.3932 282.518 74.3613 282.835 74.3613 283.158V283.445C74.3613 283.769 74.3932 284.088 74.457 284.402C74.5208 284.717 74.6279 285.002 74.7783 285.257C74.9333 285.512 75.1406 285.717 75.4004 285.872C75.6647 286.022 75.9928 286.098 76.3848 286.098ZM80.418 283.384V283.227C80.418 282.693 80.4954 282.199 80.6504 281.743C80.8053 281.283 81.0286 280.884 81.3203 280.547C81.612 280.205 81.9652 279.941 82.3799 279.754C82.7946 279.562 83.2594 279.467 83.7744 279.467C84.2939 279.467 84.7611 279.562 85.1758 279.754C85.5951 279.941 85.9505 280.205 86.2422 280.547C86.5384 280.884 86.764 281.283 86.9189 281.743C87.0739 282.199 87.1514 282.693 87.1514 283.227V283.384C87.1514 283.917 87.0739 284.411 86.9189 284.867C86.764 285.323 86.5384 285.722 86.2422 286.063C85.9505 286.401 85.5973 286.665 85.1826 286.856C84.7725 287.043 84.3076 287.137 83.7881 287.137C83.2686 287.137 82.8014 287.043 82.3867 286.856C81.972 286.665 81.6165 286.401 81.3203 286.063C81.0286 285.722 80.8053 285.323 80.6504 284.867C80.4954 284.411 80.418 283.917 80.418 283.384ZM81.6826 283.227V283.384C81.6826 283.753 81.7259 284.102 81.8125 284.43C81.8991 284.753 82.029 285.04 82.2021 285.291C82.3799 285.542 82.6009 285.74 82.8652 285.886C83.1296 286.027 83.4372 286.098 83.7881 286.098C84.1344 286.098 84.4375 286.027 84.6973 285.886C84.9616 285.74 85.1803 285.542 85.3535 285.291C85.5267 285.04 85.6566 284.753 85.7432 284.43C85.8343 284.102 85.8799 283.753 85.8799 283.384V283.227C85.8799 282.862 85.8343 282.518 85.7432 282.194C85.6566 281.866 85.5244 281.577 85.3467 281.326C85.1735 281.071 84.9548 280.87 84.6904 280.725C84.4307 280.579 84.1253 280.506 83.7744 280.506C83.4281 280.506 83.1227 280.579 82.8584 280.725C82.5986 280.87 82.3799 281.071 82.2021 281.326C82.029 281.577 81.8991 281.866 81.8125 282.194C81.7259 282.518 81.6826 282.862 81.6826 283.227ZM93.2627 285.291V279.604H94.5342V287H93.3242L93.2627 285.291ZM93.502 283.732L94.0283 283.719C94.0283 284.211 93.9759 284.667 93.8711 285.086C93.7708 285.501 93.6068 285.861 93.3789 286.166C93.151 286.471 92.8525 286.711 92.4834 286.884C92.1143 287.052 91.6654 287.137 91.1367 287.137C90.7767 287.137 90.4463 287.084 90.1455 286.979C89.8493 286.875 89.5941 286.713 89.3799 286.494C89.1657 286.275 88.9993 285.991 88.8809 285.64C88.7669 285.289 88.71 284.867 88.71 284.375V279.604H89.9746V284.389C89.9746 284.721 90.0111 284.997 90.084 285.216C90.1615 285.43 90.264 285.601 90.3916 285.729C90.5238 285.852 90.6696 285.938 90.8291 285.988C90.9932 286.038 91.1618 286.063 91.335 286.063C91.8727 286.063 92.2988 285.961 92.6133 285.756C92.9277 285.546 93.1533 285.266 93.29 284.915C93.4313 284.56 93.502 284.165 93.502 283.732ZM97.7266 281.183V287H96.4619V279.604H97.6582L97.7266 281.183ZM97.4258 283.021L96.8994 283.001C96.904 282.495 96.9792 282.028 97.125 281.6C97.2708 281.167 97.4759 280.791 97.7402 280.472C98.0046 280.153 98.319 279.907 98.6836 279.733C99.0527 279.556 99.4606 279.467 99.9072 279.467C100.272 279.467 100.6 279.517 100.892 279.617C101.183 279.713 101.432 279.868 101.637 280.082C101.846 280.296 102.006 280.574 102.115 280.916C102.225 281.253 102.279 281.666 102.279 282.153V287H101.008V282.14C101.008 281.752 100.951 281.442 100.837 281.21C100.723 280.973 100.557 280.802 100.338 280.697C100.119 280.588 99.8503 280.533 99.5312 280.533C99.2168 280.533 98.9297 280.599 98.6699 280.731C98.4147 280.864 98.1937 281.046 98.0068 281.278C97.8245 281.511 97.681 281.777 97.5762 282.078C97.4759 282.374 97.4258 282.689 97.4258 283.021ZM107.297 279.604V280.574H103.298V279.604H107.297ZM104.651 277.806H105.916V285.168C105.916 285.419 105.955 285.608 106.032 285.735C106.11 285.863 106.21 285.947 106.333 285.988C106.456 286.029 106.588 286.05 106.729 286.05C106.834 286.05 106.944 286.041 107.058 286.022C107.176 286 107.265 285.981 107.324 285.968L107.331 287C107.231 287.032 107.099 287.062 106.935 287.089C106.775 287.121 106.581 287.137 106.354 287.137C106.044 287.137 105.759 287.075 105.499 286.952C105.239 286.829 105.032 286.624 104.877 286.337C104.727 286.045 104.651 285.653 104.651 285.161V277.806ZM116.56 285.038C116.56 284.856 116.519 284.687 116.437 284.532C116.359 284.373 116.197 284.229 115.951 284.102C115.71 283.969 115.345 283.855 114.857 283.76C114.447 283.673 114.076 283.571 113.743 283.452C113.415 283.334 113.135 283.19 112.902 283.021C112.674 282.853 112.499 282.655 112.376 282.427C112.253 282.199 112.191 281.932 112.191 281.627C112.191 281.335 112.255 281.06 112.383 280.8C112.515 280.54 112.7 280.31 112.937 280.109C113.178 279.909 113.467 279.752 113.805 279.638C114.142 279.524 114.518 279.467 114.933 279.467C115.525 279.467 116.031 279.572 116.45 279.781C116.869 279.991 117.191 280.271 117.414 280.622C117.637 280.968 117.749 281.354 117.749 281.777H116.484C116.484 281.572 116.423 281.374 116.3 281.183C116.181 280.987 116.006 280.825 115.773 280.697C115.546 280.57 115.265 280.506 114.933 280.506C114.582 280.506 114.297 280.561 114.078 280.67C113.864 280.775 113.707 280.909 113.606 281.073C113.511 281.237 113.463 281.41 113.463 281.593C113.463 281.729 113.486 281.853 113.531 281.962C113.581 282.067 113.668 282.165 113.791 282.256C113.914 282.342 114.087 282.424 114.311 282.502C114.534 282.579 114.819 282.657 115.165 282.734C115.771 282.871 116.27 283.035 116.662 283.227C117.054 283.418 117.346 283.653 117.537 283.931C117.729 284.209 117.824 284.546 117.824 284.942C117.824 285.266 117.756 285.562 117.619 285.831C117.487 286.1 117.293 286.332 117.038 286.528C116.787 286.72 116.487 286.87 116.136 286.979C115.789 287.084 115.4 287.137 114.967 287.137C114.315 287.137 113.764 287.021 113.312 286.788C112.861 286.556 112.52 286.255 112.287 285.886C112.055 285.517 111.938 285.127 111.938 284.717H113.21C113.228 285.063 113.328 285.339 113.511 285.544C113.693 285.744 113.916 285.888 114.181 285.975C114.445 286.057 114.707 286.098 114.967 286.098C115.313 286.098 115.603 286.052 115.835 285.961C116.072 285.87 116.252 285.744 116.375 285.585C116.498 285.425 116.56 285.243 116.56 285.038ZM122.555 287.137C122.04 287.137 121.573 287.05 121.153 286.877C120.739 286.699 120.381 286.451 120.08 286.132C119.784 285.813 119.556 285.435 119.396 284.997C119.237 284.56 119.157 284.081 119.157 283.562V283.274C119.157 282.673 119.246 282.137 119.424 281.668C119.602 281.194 119.843 280.793 120.148 280.465C120.454 280.137 120.8 279.888 121.188 279.72C121.575 279.551 121.976 279.467 122.391 279.467C122.919 279.467 123.375 279.558 123.758 279.74C124.145 279.923 124.462 280.178 124.708 280.506C124.954 280.829 125.136 281.212 125.255 281.654C125.373 282.092 125.433 282.57 125.433 283.09V283.657H119.909V282.625H124.168V282.529C124.15 282.201 124.081 281.882 123.963 281.572C123.849 281.262 123.667 281.007 123.416 280.807C123.165 280.606 122.824 280.506 122.391 280.506C122.104 280.506 121.839 280.567 121.598 280.69C121.356 280.809 121.149 280.987 120.976 281.224C120.802 281.461 120.668 281.75 120.572 282.092C120.477 282.434 120.429 282.828 120.429 283.274V283.562C120.429 283.912 120.477 284.243 120.572 284.553C120.673 284.858 120.816 285.127 121.003 285.359C121.194 285.592 121.424 285.774 121.693 285.906C121.967 286.038 122.277 286.104 122.623 286.104C123.07 286.104 123.448 286.013 123.758 285.831C124.068 285.649 124.339 285.405 124.571 285.1L125.337 285.708C125.177 285.95 124.975 286.18 124.729 286.398C124.482 286.617 124.179 286.795 123.819 286.932C123.464 287.068 123.042 287.137 122.555 287.137ZM130.006 279.604V280.574H126.007V279.604H130.006ZM127.36 277.806H128.625V285.168C128.625 285.419 128.664 285.608 128.741 285.735C128.819 285.863 128.919 285.947 129.042 285.988C129.165 286.029 129.297 286.05 129.438 286.05C129.543 286.05 129.653 286.041 129.767 286.022C129.885 286 129.974 285.981 130.033 285.968L130.04 287C129.94 287.032 129.808 287.062 129.644 287.089C129.484 287.121 129.29 287.137 129.062 287.137C128.753 287.137 128.468 287.075 128.208 286.952C127.948 286.829 127.741 286.624 127.586 286.337C127.436 286.045 127.36 285.653 127.36 285.161V277.806ZM134.586 279.604V280.574H130.587V279.604H134.586ZM131.94 277.806H133.205V285.168C133.205 285.419 133.244 285.608 133.321 285.735C133.399 285.863 133.499 285.947 133.622 285.988C133.745 286.029 133.877 286.05 134.019 286.05C134.123 286.05 134.233 286.041 134.347 286.022C134.465 286 134.554 285.981 134.613 285.968L134.62 287C134.52 287.032 134.388 287.062 134.224 287.089C134.064 287.121 133.87 287.137 133.643 287.137C133.333 287.137 133.048 287.075 132.788 286.952C132.528 286.829 132.321 286.624 132.166 286.337C132.016 286.045 131.94 285.653 131.94 285.161V277.806ZM137.443 279.604V287H136.172V279.604H137.443ZM136.076 277.642C136.076 277.437 136.138 277.263 136.261 277.122C136.388 276.981 136.575 276.91 136.821 276.91C137.063 276.91 137.247 276.981 137.375 277.122C137.507 277.263 137.573 277.437 137.573 277.642C137.573 277.838 137.507 278.006 137.375 278.147C137.247 278.284 137.063 278.353 136.821 278.353C136.575 278.353 136.388 278.284 136.261 278.147C136.138 278.006 136.076 277.838 136.076 277.642ZM140.738 281.183V287H139.474V279.604H140.67L140.738 281.183ZM140.438 283.021L139.911 283.001C139.916 282.495 139.991 282.028 140.137 281.6C140.283 281.167 140.488 280.791 140.752 280.472C141.016 280.153 141.331 279.907 141.695 279.733C142.064 279.556 142.472 279.467 142.919 279.467C143.284 279.467 143.612 279.517 143.903 279.617C144.195 279.713 144.443 279.868 144.648 280.082C144.858 280.296 145.018 280.574 145.127 280.916C145.236 281.253 145.291 281.666 145.291 282.153V287H144.02V282.14C144.02 281.752 143.963 281.442 143.849 281.21C143.735 280.973 143.568 280.802 143.35 280.697C143.131 280.588 142.862 280.533 142.543 280.533C142.229 280.533 141.941 280.599 141.682 280.731C141.426 280.864 141.205 281.046 141.019 281.278C140.836 281.511 140.693 281.777 140.588 282.078C140.488 282.374 140.438 282.689 140.438 283.021ZM152.004 279.604H153.152V286.843C153.152 287.494 153.02 288.05 152.756 288.511C152.492 288.971 152.122 289.32 151.648 289.557C151.179 289.798 150.637 289.919 150.021 289.919C149.766 289.919 149.465 289.878 149.119 289.796C148.777 289.718 148.44 289.584 148.107 289.393C147.779 289.206 147.504 288.953 147.28 288.634L147.943 287.882C148.253 288.256 148.577 288.515 148.914 288.661C149.256 288.807 149.593 288.88 149.926 288.88C150.327 288.88 150.673 288.805 150.965 288.654C151.257 288.504 151.482 288.281 151.642 287.984C151.806 287.693 151.888 287.333 151.888 286.904V281.23L152.004 279.604ZM146.911 283.384V283.24C146.911 282.675 146.977 282.162 147.109 281.702C147.246 281.237 147.44 280.839 147.69 280.506C147.946 280.173 148.253 279.918 148.613 279.74C148.973 279.558 149.379 279.467 149.83 279.467C150.295 279.467 150.701 279.549 151.047 279.713C151.398 279.872 151.694 280.107 151.936 280.417C152.182 280.722 152.375 281.091 152.517 281.524C152.658 281.957 152.756 282.447 152.811 282.994V283.623C152.76 284.165 152.662 284.653 152.517 285.086C152.375 285.519 152.182 285.888 151.936 286.193C151.694 286.499 151.398 286.733 151.047 286.897C150.696 287.057 150.286 287.137 149.816 287.137C149.374 287.137 148.973 287.043 148.613 286.856C148.258 286.67 147.952 286.408 147.697 286.07C147.442 285.733 147.246 285.337 147.109 284.881C146.977 284.421 146.911 283.922 146.911 283.384ZM148.176 283.24V283.384C148.176 283.753 148.212 284.099 148.285 284.423C148.363 284.746 148.479 285.031 148.634 285.277C148.793 285.523 148.996 285.717 149.242 285.858C149.488 285.995 149.782 286.063 150.124 286.063C150.543 286.063 150.89 285.975 151.163 285.797C151.437 285.619 151.653 285.384 151.812 285.093C151.977 284.801 152.104 284.484 152.195 284.143V282.495C152.145 282.244 152.068 282.003 151.963 281.771C151.863 281.534 151.73 281.324 151.566 281.142C151.407 280.955 151.209 280.807 150.972 280.697C150.735 280.588 150.457 280.533 150.138 280.533C149.791 280.533 149.493 280.606 149.242 280.752C148.996 280.893 148.793 281.089 148.634 281.34C148.479 281.586 148.363 281.873 148.285 282.201C148.212 282.525 148.176 282.871 148.176 283.24ZM159.38 285.038C159.38 284.856 159.339 284.687 159.257 284.532C159.179 284.373 159.018 284.229 158.771 284.102C158.53 283.969 158.165 283.855 157.678 283.76C157.268 283.673 156.896 283.571 156.563 283.452C156.235 283.334 155.955 283.19 155.723 283.021C155.495 282.853 155.319 282.655 155.196 282.427C155.073 282.199 155.012 281.932 155.012 281.627C155.012 281.335 155.076 281.06 155.203 280.8C155.335 280.54 155.52 280.31 155.757 280.109C155.998 279.909 156.288 279.752 156.625 279.638C156.962 279.524 157.338 279.467 157.753 279.467C158.345 279.467 158.851 279.572 159.271 279.781C159.69 279.991 160.011 280.271 160.234 280.622C160.458 280.968 160.569 281.354 160.569 281.777H159.305C159.305 281.572 159.243 281.374 159.12 281.183C159.002 280.987 158.826 280.825 158.594 280.697C158.366 280.57 158.086 280.506 157.753 280.506C157.402 280.506 157.117 280.561 156.898 280.67C156.684 280.775 156.527 280.909 156.427 281.073C156.331 281.237 156.283 281.41 156.283 281.593C156.283 281.729 156.306 281.853 156.352 281.962C156.402 282.067 156.488 282.165 156.611 282.256C156.734 282.342 156.908 282.424 157.131 282.502C157.354 282.579 157.639 282.657 157.985 282.734C158.591 282.871 159.09 283.035 159.482 283.227C159.874 283.418 160.166 283.653 160.357 283.931C160.549 284.209 160.645 284.546 160.645 284.942C160.645 285.266 160.576 285.562 160.439 285.831C160.307 286.1 160.114 286.332 159.858 286.528C159.608 286.72 159.307 286.87 158.956 286.979C158.61 287.084 158.22 287.137 157.787 287.137C157.135 287.137 156.584 287.021 156.133 286.788C155.682 286.556 155.34 286.255 155.107 285.886C154.875 285.517 154.759 285.127 154.759 284.717H156.03C156.049 285.063 156.149 285.339 156.331 285.544C156.513 285.744 156.737 285.888 157.001 285.975C157.265 286.057 157.527 286.098 157.787 286.098C158.133 286.098 158.423 286.052 158.655 285.961C158.892 285.87 159.072 285.744 159.195 285.585C159.318 285.425 159.38 285.243 159.38 285.038Z" fill="#505050"/>
</svg>
