<svg width="56" height="48" viewBox="0 0 56 48" fill="none" xmlns="http://www.w3.org/2000/svg">
<path d="M23.8694 10.1843C23.5104 10.1843 23.2194 9.89331 23.2194 9.53433V8.68422H22.3694C22.0104 8.68422 21.7194 8.3932 21.7194 8.03422C21.7194 7.67523 22.0104 7.38422 22.3694 7.38422H23.2194V6.53433C23.2194 6.17534 23.5104 5.88433 23.8694 5.88433C24.2284 5.88433 24.5194 6.17534 24.5194 6.53433V7.38422H25.3694C25.7284 7.38422 26.0194 7.67523 26.0194 8.03422C26.0194 8.3932 25.7284 8.68422 25.3694 8.68422H24.5194V9.53433C24.5194 9.89331 24.2284 10.1843 23.8694 10.1843Z" fill="#5095EC"/>
<path d="M25.3897 17.6766C25.1358 17.9305 24.7243 17.9305 24.4704 17.6766L23.8693 17.0755L23.2683 17.6765C23.0144 17.9304 22.6029 17.9304 22.349 17.6765C22.0952 17.4227 22.0952 17.0111 22.349 16.7573L22.9501 16.1563L22.3491 15.5553C22.0953 15.3014 22.0953 14.8899 22.3491 14.6361C22.6029 14.3822 23.0145 14.3822 23.2683 14.6361L23.8693 15.237L24.4704 14.636C24.7242 14.3821 25.1358 14.3821 25.3896 14.636C25.6434 14.8898 25.6434 15.3014 25.3896 15.5552L24.7886 16.1563L25.3897 16.7574C25.6435 17.0112 25.6435 17.4228 25.3897 17.6766Z" fill="#5095EC"/>
<path d="M31.2561 14.4544C30.8971 14.4544 30.6061 14.7454 30.6061 15.1044C30.6061 15.4634 30.8971 15.7544 31.2561 15.7544H33.2561C33.6151 15.7544 33.9061 15.4634 33.9061 15.1044C33.9061 14.7454 33.6151 14.4544 33.2561 14.4544H31.2561Z" fill="#5095EC"/>
<path d="M30.6061 17.1405C30.6061 16.7816 30.8971 16.4905 31.2561 16.4905H33.2561C33.6151 16.4905 33.9061 16.7816 33.9061 17.1405C33.9061 17.4995 33.6151 17.7905 33.2561 17.7905H31.2561C30.8971 17.7905 30.6061 17.4995 30.6061 17.1405Z" fill="#5095EC"/>
<path d="M30.6061 8.03428C30.6061 7.67529 30.8971 7.38428 31.2561 7.38428H33.2561C33.6151 7.38428 33.9061 7.67529 33.9061 8.03428C33.9061 8.39326 33.6151 8.68428 33.2561 8.68428H31.2561C30.8971 8.68428 30.6061 8.39326 30.6061 8.03428Z" fill="#5095EC"/>
<path fill-rule="evenodd" clip-rule="evenodd" d="M34 21C35.6569 21 37 19.6569 37 18V6C37 4.34315 35.6569 3 34 3H22C20.4467 3 19.1691 4.1805 19.0155 5.69327C19.0052 5.79412 19 5.89645 19 6V18C19 19.6569 20.3431 21 22 21H34ZM20.3 6C20.3 5.06112 21.0611 4.3 22 4.3L27.3522 4.3V11.3463H20.3V6ZM20.3 12.6463V18C20.3 18.9389 21.0611 19.7 22 19.7H27.3522V12.6463H20.3ZM28.6522 19.7H34C34.9389 19.7 35.7 18.9389 35.7 18V12.6463H28.6522V19.7ZM35.7 11.3463V6C35.7 5.06112 34.9389 4.3 34 4.3H28.6522V11.3463H35.7Z" fill="#5095EC"/>
<path d="M4.57031 35.0469V45H3.25098V35.0469H4.57031ZM8.04297 39.1826V45H6.77832V37.6035H7.97461L8.04297 39.1826ZM7.74219 41.0215L7.21582 41.001C7.22038 40.4951 7.29557 40.028 7.44141 39.5996C7.58724 39.1667 7.79232 38.7907 8.05664 38.4717C8.32096 38.1527 8.63542 37.9066 9 37.7334C9.36914 37.5557 9.77702 37.4668 10.2236 37.4668C10.5882 37.4668 10.9163 37.5169 11.208 37.6172C11.4997 37.7129 11.748 37.8678 11.9531 38.082C12.1628 38.2962 12.3223 38.5742 12.4316 38.916C12.541 39.2533 12.5957 39.6657 12.5957 40.1533V45H11.3242V40.1396C11.3242 39.7523 11.2673 39.4424 11.1533 39.21C11.0394 38.973 10.873 38.8021 10.6543 38.6973C10.4355 38.5879 10.1667 38.5332 9.84766 38.5332C9.5332 38.5332 9.24609 38.5993 8.98633 38.7314C8.73112 38.8636 8.51009 39.0459 8.32324 39.2783C8.14095 39.5107 7.9974 39.7773 7.89258 40.0781C7.79232 40.3743 7.74219 40.6888 7.74219 41.0215ZM16.7656 43.8584L18.7891 37.6035H20.0811L17.4219 45H16.5742L16.7656 43.8584ZM15.0771 37.6035L17.1621 43.8926L17.3057 45H16.458L13.7783 37.6035H15.0771ZM20.8535 41.3838V41.2266C20.8535 40.6934 20.931 40.1989 21.0859 39.7432C21.2409 39.2829 21.4642 38.8841 21.7559 38.5469C22.0475 38.2051 22.4007 37.9408 22.8154 37.7539C23.2301 37.5625 23.695 37.4668 24.21 37.4668C24.7295 37.4668 25.1966 37.5625 25.6113 37.7539C26.0306 37.9408 26.3861 38.2051 26.6777 38.5469C26.974 38.8841 27.1995 39.2829 27.3545 39.7432C27.5094 40.1989 27.5869 40.6934 27.5869 41.2266V41.3838C27.5869 41.917 27.5094 42.4115 27.3545 42.8672C27.1995 43.3229 26.974 43.7217 26.6777 44.0635C26.3861 44.4007 26.0329 44.665 25.6182 44.8564C25.208 45.0433 24.7432 45.1367 24.2236 45.1367C23.7041 45.1367 23.237 45.0433 22.8223 44.8564C22.4076 44.665 22.0521 44.4007 21.7559 44.0635C21.4642 43.7217 21.2409 43.3229 21.0859 42.8672C20.931 42.4115 20.8535 41.917 20.8535 41.3838ZM22.1182 41.2266V41.3838C22.1182 41.7529 22.1615 42.1016 22.248 42.4297C22.3346 42.7533 22.4645 43.0404 22.6377 43.291C22.8154 43.5417 23.0365 43.7399 23.3008 43.8857C23.5651 44.027 23.8727 44.0977 24.2236 44.0977C24.57 44.0977 24.873 44.027 25.1328 43.8857C25.3971 43.7399 25.6159 43.5417 25.7891 43.291C25.9622 43.0404 26.0921 42.7533 26.1787 42.4297C26.2699 42.1016 26.3154 41.7529 26.3154 41.3838V41.2266C26.3154 40.862 26.2699 40.5179 26.1787 40.1943C26.0921 39.8662 25.96 39.5768 25.7822 39.3262C25.609 39.071 25.3903 38.8704 25.126 38.7246C24.8662 38.5788 24.5609 38.5059 24.21 38.5059C23.8636 38.5059 23.5583 38.5788 23.2939 38.7246C23.0342 38.8704 22.8154 39.071 22.6377 39.3262C22.4645 39.5768 22.3346 39.8662 22.248 40.1943C22.1615 40.5179 22.1182 40.862 22.1182 41.2266ZM30.5469 37.6035V45H29.2754V37.6035H30.5469ZM29.1797 35.6416C29.1797 35.4365 29.2412 35.2633 29.3643 35.1221C29.4919 34.9808 29.6787 34.9102 29.9248 34.9102C30.1663 34.9102 30.3509 34.9808 30.4785 35.1221C30.6107 35.2633 30.6768 35.4365 30.6768 35.6416C30.6768 35.8376 30.6107 36.0062 30.4785 36.1475C30.3509 36.2842 30.1663 36.3525 29.9248 36.3525C29.6787 36.3525 29.4919 36.2842 29.3643 36.1475C29.2412 36.0062 29.1797 35.8376 29.1797 35.6416ZM35.5371 44.0977C35.8379 44.0977 36.1159 44.0361 36.3711 43.9131C36.6263 43.79 36.8359 43.6214 37 43.4072C37.1641 43.1885 37.2575 42.9401 37.2803 42.6621H38.4834C38.4606 43.0996 38.3125 43.5075 38.0391 43.8857C37.7702 44.2594 37.417 44.5625 36.9795 44.7949C36.542 45.0228 36.0612 45.1367 35.5371 45.1367C34.9811 45.1367 34.4958 45.0387 34.0811 44.8428C33.6709 44.6468 33.3291 44.3779 33.0557 44.0361C32.7868 43.6943 32.584 43.3024 32.4473 42.8604C32.3151 42.4137 32.249 41.9421 32.249 41.4453V41.1582C32.249 40.6615 32.3151 40.1921 32.4473 39.75C32.584 39.3034 32.7868 38.9092 33.0557 38.5674C33.3291 38.2256 33.6709 37.9567 34.0811 37.7607C34.4958 37.5648 34.9811 37.4668 35.5371 37.4668C36.1159 37.4668 36.6217 37.5853 37.0547 37.8223C37.4876 38.0547 37.8271 38.3737 38.0732 38.7793C38.3239 39.1803 38.4606 39.6361 38.4834 40.1465H37.2803C37.2575 39.8411 37.1709 39.5654 37.0205 39.3193C36.8747 39.0732 36.6742 38.8773 36.4189 38.7314C36.1683 38.5811 35.8743 38.5059 35.5371 38.5059C35.1497 38.5059 34.8239 38.5833 34.5596 38.7383C34.2998 38.8887 34.0924 39.0938 33.9375 39.3535C33.7871 39.6087 33.6777 39.8936 33.6094 40.208C33.5456 40.5179 33.5137 40.8346 33.5137 41.1582V41.4453C33.5137 41.7689 33.5456 42.0879 33.6094 42.4023C33.6732 42.7168 33.7803 43.0016 33.9307 43.2568C34.0856 43.512 34.293 43.7171 34.5527 43.8721C34.8171 44.0225 35.1452 44.0977 35.5371 44.0977ZM42.9746 45.1367C42.4596 45.1367 41.9925 45.0501 41.5732 44.877C41.1585 44.6992 40.8008 44.4508 40.5 44.1318C40.2038 43.8128 39.9759 43.4346 39.8164 42.9971C39.6569 42.5596 39.5771 42.0811 39.5771 41.5615V41.2744C39.5771 40.6729 39.666 40.1374 39.8438 39.668C40.0215 39.194 40.263 38.793 40.5684 38.4648C40.8737 38.1367 41.2201 37.8883 41.6074 37.7197C41.9948 37.5511 42.3958 37.4668 42.8105 37.4668C43.3392 37.4668 43.7949 37.5579 44.1777 37.7402C44.5651 37.9225 44.8818 38.1777 45.1279 38.5059C45.374 38.8294 45.5563 39.2122 45.6748 39.6543C45.7933 40.0918 45.8525 40.5703 45.8525 41.0898V41.6572H40.3291V40.625H44.5879V40.5293C44.5697 40.2012 44.5013 39.8822 44.3828 39.5723C44.2689 39.2624 44.0866 39.0072 43.8359 38.8066C43.5853 38.6061 43.2435 38.5059 42.8105 38.5059C42.5234 38.5059 42.2591 38.5674 42.0176 38.6904C41.776 38.8089 41.5687 38.9867 41.3955 39.2236C41.2223 39.4606 41.0879 39.75 40.9922 40.0918C40.8965 40.4336 40.8486 40.8278 40.8486 41.2744V41.5615C40.8486 41.9124 40.8965 42.2428 40.9922 42.5527C41.0924 42.8581 41.236 43.127 41.4229 43.3594C41.6143 43.5918 41.8444 43.7741 42.1133 43.9062C42.3867 44.0384 42.6966 44.1045 43.043 44.1045C43.4896 44.1045 43.8678 44.0133 44.1777 43.8311C44.4876 43.6488 44.7588 43.4049 44.9912 43.0996L45.7568 43.708C45.5973 43.9495 45.3945 44.1797 45.1484 44.3984C44.9023 44.6172 44.5993 44.7949 44.2393 44.9316C43.8838 45.0684 43.4622 45.1367 42.9746 45.1367ZM51.6357 43.0381C51.6357 42.8558 51.5947 42.6872 51.5127 42.5322C51.4352 42.3727 51.2734 42.2292 51.0273 42.1016C50.7858 41.9694 50.4212 41.8555 49.9336 41.7598C49.5234 41.6732 49.152 41.5706 48.8193 41.4521C48.4912 41.3337 48.2109 41.1901 47.9785 41.0215C47.7507 40.8529 47.5752 40.6546 47.4521 40.4268C47.3291 40.1989 47.2676 39.9323 47.2676 39.627C47.2676 39.3353 47.3314 39.0596 47.459 38.7998C47.5911 38.54 47.7757 38.3099 48.0127 38.1094C48.2542 37.9089 48.5436 37.7516 48.8809 37.6377C49.2181 37.5238 49.5941 37.4668 50.0088 37.4668C50.6012 37.4668 51.1071 37.5716 51.5264 37.7812C51.9456 37.9909 52.2669 38.2712 52.4902 38.6221C52.7135 38.9684 52.8252 39.3535 52.8252 39.7773H51.5605C51.5605 39.5723 51.499 39.374 51.376 39.1826C51.2575 38.9867 51.082 38.8249 50.8496 38.6973C50.6217 38.5697 50.3415 38.5059 50.0088 38.5059C49.6579 38.5059 49.373 38.5605 49.1543 38.6699C48.9401 38.7747 48.7829 38.9092 48.6826 39.0732C48.5869 39.2373 48.5391 39.4105 48.5391 39.5928C48.5391 39.7295 48.5618 39.8525 48.6074 39.9619C48.6576 40.0667 48.7441 40.1647 48.8672 40.2559C48.9902 40.3424 49.1634 40.4245 49.3867 40.502C49.61 40.5794 49.8949 40.6569 50.2412 40.7344C50.8473 40.8711 51.3464 41.0352 51.7383 41.2266C52.1302 41.418 52.4219 41.6527 52.6133 41.9307C52.8047 42.2087 52.9004 42.5459 52.9004 42.9424C52.9004 43.266 52.832 43.5622 52.6953 43.8311C52.5632 44.0999 52.3695 44.3324 52.1143 44.5283C51.8636 44.7197 51.5628 44.8701 51.2119 44.9795C50.8656 45.0843 50.4759 45.1367 50.043 45.1367C49.3913 45.1367 48.8398 45.0205 48.3887 44.7881C47.9375 44.5557 47.5957 44.2549 47.3633 43.8857C47.1309 43.5166 47.0146 43.127 47.0146 42.7168H48.2861C48.3044 43.0632 48.4046 43.3389 48.5869 43.5439C48.7692 43.7445 48.9925 43.888 49.2568 43.9746C49.5212 44.0566 49.7832 44.0977 50.043 44.0977C50.3893 44.0977 50.6787 44.0521 50.9111 43.9609C51.1481 43.8698 51.3281 43.7445 51.4512 43.585C51.5742 43.4255 51.6357 43.2432 51.6357 43.0381Z" fill="#505050"/>
</svg>
