<svg width="57" height="48" viewBox="0 0 57 48" fill="none" xmlns="http://www.w3.org/2000/svg">
<path d="M25.6502 6.99888C25.2911 6.99888 25 7.28976 25 7.64858C25 8.00739 25.2911 8.29827 25.6502 8.29827H32.3527C32.7118 8.29827 33.0029 8.00739 33.0029 7.64858C33.0029 7.28976 32.7118 6.99888 32.3527 6.99888H25.6502Z" fill="#5095EC"/>
<path d="M25 10.6472C25 10.2884 25.2911 9.99748 25.6502 9.99748H32.3526C32.7118 9.99748 33.0029 10.2884 33.0029 10.6472C33.0029 11.006 32.7118 11.2969 32.3526 11.2969H25.6502C25.2911 11.2969 25 11.006 25 10.6472Z" fill="#5095EC"/>
<path d="M25 13.6458C25 13.287 25.2911 12.9961 25.6502 12.9961H28.8514C29.2105 12.9961 29.5016 13.287 29.5016 13.6458C29.5016 14.0046 29.2105 14.2955 28.8514 14.2955H25.6502C25.2911 14.2955 25 14.0046 25 13.6458Z" fill="#5095EC"/>
<path fill-rule="evenodd" clip-rule="evenodd" d="M22 19.3936L22.0089 5.59989C22.0089 4.16462 23.1734 3.0011 24.6099 3.0011H33.3991C34.8355 3.0011 36 4.16462 36 5.59989L35.9911 19.3991C35.9911 20.6529 34.6129 21.4191 33.5467 20.7581L31.8715 19.7196C31.6634 19.5906 31.3979 19.601 31.2005 19.7458L29.9123 20.6909C29.3486 21.1045 28.5814 21.1045 28.0177 20.6909L26.7392 19.7529C26.5403 19.607 26.2723 19.5976 26.0637 19.7294L24.4561 20.7453C23.3903 21.4187 22 20.6536 22 19.3936ZM34.6911 19.3983L34.7 5.59989C34.7 4.8836 34.1186 4.3011 33.3991 4.3011H24.6099C23.8904 4.3011 23.3089 4.88444 23.3089 5.60073L23.3 19.3939C23.3002 19.6278 23.56 19.7737 23.7616 19.6463L25.3693 18.6304C26.0297 18.2131 26.8783 18.2426 27.5082 18.7047L28.7867 19.6428C28.8927 19.7205 29.0373 19.7205 29.1433 19.6428L30.4315 18.6977C31.0565 18.2391 31.8976 18.2062 32.5565 18.6147L34.2316 19.6532C34.4335 19.7783 34.6911 19.6312 34.6911 19.3983Z" fill="#5095EC"/>
<path d="M6.45996 42.4844C6.45996 42.252 6.4235 42.0469 6.35059 41.8691C6.28223 41.6868 6.15918 41.5228 5.98145 41.377C5.80827 41.2311 5.56673 41.0921 5.25684 40.96C4.9515 40.8278 4.56413 40.6934 4.09473 40.5566C3.60254 40.4108 3.1582 40.249 2.76172 40.0713C2.36523 39.889 2.02572 39.6816 1.74316 39.4492C1.46061 39.2168 1.24414 38.9502 1.09375 38.6494C0.943359 38.3486 0.868164 38.0046 0.868164 37.6172C0.868164 37.2298 0.947917 36.8721 1.10742 36.5439C1.26693 36.2158 1.49479 35.931 1.79102 35.6895C2.0918 35.4434 2.44954 35.252 2.86426 35.1152C3.27897 34.9785 3.74154 34.9102 4.25195 34.9102C4.99935 34.9102 5.63281 35.0537 6.15234 35.3408C6.67643 35.6234 7.0752 35.9948 7.34863 36.4551C7.62207 36.9108 7.75879 37.3984 7.75879 37.918H6.44629C6.44629 37.5443 6.36654 37.2139 6.20703 36.9268C6.04753 36.6351 5.80599 36.4072 5.48242 36.2432C5.15885 36.0745 4.7487 35.9902 4.25195 35.9902C3.78255 35.9902 3.39518 36.0609 3.08984 36.2021C2.78451 36.3434 2.55664 36.5348 2.40625 36.7764C2.26042 37.0179 2.1875 37.2936 2.1875 37.6035C2.1875 37.8132 2.23079 38.0046 2.31738 38.1777C2.40853 38.3464 2.54753 38.5036 2.73438 38.6494C2.92578 38.7952 3.16732 38.9297 3.45898 39.0527C3.75521 39.1758 4.1084 39.2943 4.51855 39.4082C5.08366 39.5677 5.57129 39.7454 5.98145 39.9414C6.3916 40.1374 6.72884 40.3584 6.99316 40.6045C7.26204 40.846 7.46029 41.1217 7.58789 41.4316C7.72005 41.737 7.78613 42.0833 7.78613 42.4707C7.78613 42.8763 7.7041 43.2432 7.54004 43.5713C7.37598 43.8994 7.14128 44.1797 6.83594 44.4121C6.5306 44.6445 6.16374 44.8245 5.73535 44.9521C5.31152 45.0752 4.83757 45.1367 4.31348 45.1367C3.85319 45.1367 3.39974 45.0729 2.95312 44.9453C2.51107 44.8177 2.10775 44.6263 1.74316 44.3711C1.38314 44.1159 1.09375 43.8014 0.875 43.4277C0.660807 43.0495 0.553711 42.612 0.553711 42.1152H1.86621C1.86621 42.457 1.93229 42.751 2.06445 42.9971C2.19661 43.2386 2.37663 43.4391 2.60449 43.5986C2.83691 43.7581 3.09896 43.8766 3.39062 43.9541C3.68685 44.027 3.99447 44.0635 4.31348 44.0635C4.77376 44.0635 5.16341 43.9997 5.48242 43.8721C5.80143 43.7445 6.04297 43.5622 6.20703 43.3252C6.37565 43.0882 6.45996 42.8079 6.45996 42.4844ZM12.2363 44.0977C12.5371 44.0977 12.8151 44.0361 13.0703 43.9131C13.3255 43.79 13.5352 43.6214 13.6992 43.4072C13.8633 43.1885 13.9567 42.9401 13.9795 42.6621H15.1826C15.1598 43.0996 15.0117 43.5075 14.7383 43.8857C14.4694 44.2594 14.1162 44.5625 13.6787 44.7949C13.2412 45.0228 12.7604 45.1367 12.2363 45.1367C11.6803 45.1367 11.195 45.0387 10.7803 44.8428C10.3701 44.6468 10.0283 44.3779 9.75488 44.0361C9.486 43.6943 9.2832 43.3024 9.14648 42.8604C9.01432 42.4137 8.94824 41.9421 8.94824 41.4453V41.1582C8.94824 40.6615 9.01432 40.1921 9.14648 39.75C9.2832 39.3034 9.486 38.9092 9.75488 38.5674C10.0283 38.2256 10.3701 37.9567 10.7803 37.7607C11.195 37.5648 11.6803 37.4668 12.2363 37.4668C12.8151 37.4668 13.321 37.5853 13.7539 37.8223C14.1868 38.0547 14.5264 38.3737 14.7725 38.7793C15.0231 39.1803 15.1598 39.6361 15.1826 40.1465H13.9795C13.9567 39.8411 13.8701 39.5654 13.7197 39.3193C13.5739 39.0732 13.3734 38.8773 13.1182 38.7314C12.8675 38.5811 12.5736 38.5059 12.2363 38.5059C11.849 38.5059 11.5231 38.5833 11.2588 38.7383C10.999 38.8887 10.7917 39.0938 10.6367 39.3535C10.4863 39.6087 10.377 39.8936 10.3086 40.208C10.2448 40.5179 10.2129 40.8346 10.2129 41.1582V41.4453C10.2129 41.7689 10.2448 42.0879 10.3086 42.4023C10.3724 42.7168 10.4795 43.0016 10.6299 43.2568C10.7848 43.512 10.9922 43.7171 11.252 43.8721C11.5163 44.0225 11.8444 44.0977 12.2363 44.0977ZM17.8691 34.5V45H16.6045V34.5H17.8691ZM17.5684 41.0215L17.042 41.001C17.0465 40.4951 17.1217 40.028 17.2676 39.5996C17.4134 39.1667 17.6185 38.7907 17.8828 38.4717C18.1471 38.1527 18.4616 37.9066 18.8262 37.7334C19.1953 37.5557 19.6032 37.4668 20.0498 37.4668C20.4144 37.4668 20.7425 37.5169 21.0342 37.6172C21.3258 37.7129 21.5742 37.8678 21.7793 38.082C21.9889 38.2962 22.1484 38.5742 22.2578 38.916C22.3672 39.2533 22.4219 39.6657 22.4219 40.1533V45H21.1504V40.1396C21.1504 39.7523 21.0934 39.4424 20.9795 39.21C20.8656 38.973 20.6992 38.8021 20.4805 38.6973C20.2617 38.5879 19.9928 38.5332 19.6738 38.5332C19.3594 38.5332 19.0723 38.5993 18.8125 38.7314C18.5573 38.8636 18.3363 39.0459 18.1494 39.2783C17.9671 39.5107 17.8236 39.7773 17.7188 40.0781C17.6185 40.3743 17.5684 40.6888 17.5684 41.0215ZM27.3848 45.1367C26.8698 45.1367 26.4027 45.0501 25.9834 44.877C25.5687 44.6992 25.2109 44.4508 24.9102 44.1318C24.6139 43.8128 24.3861 43.4346 24.2266 42.9971C24.0671 42.5596 23.9873 42.0811 23.9873 41.5615V41.2744C23.9873 40.6729 24.0762 40.1374 24.2539 39.668C24.4316 39.194 24.6732 38.793 24.9785 38.4648C25.2839 38.1367 25.6302 37.8883 26.0176 37.7197C26.4049 37.5511 26.806 37.4668 27.2207 37.4668C27.7493 37.4668 28.2051 37.5579 28.5879 37.7402C28.9753 37.9225 29.292 38.1777 29.5381 38.5059C29.7842 38.8294 29.9665 39.2122 30.085 39.6543C30.2035 40.0918 30.2627 40.5703 30.2627 41.0898V41.6572H24.7393V40.625H28.998V40.5293C28.9798 40.2012 28.9115 39.8822 28.793 39.5723C28.679 39.2624 28.4967 39.0072 28.2461 38.8066C27.9954 38.6061 27.6536 38.5059 27.2207 38.5059C26.9336 38.5059 26.6693 38.5674 26.4277 38.6904C26.1862 38.8089 25.9788 38.9867 25.8057 39.2236C25.6325 39.4606 25.498 39.75 25.4023 40.0918C25.3066 40.4336 25.2588 40.8278 25.2588 41.2744V41.5615C25.2588 41.9124 25.3066 42.2428 25.4023 42.5527C25.5026 42.8581 25.6462 43.127 25.833 43.3594C26.0244 43.5918 26.2546 43.7741 26.5234 43.9062C26.7969 44.0384 27.1068 44.1045 27.4531 44.1045C27.8997 44.1045 28.278 44.0133 28.5879 43.8311C28.8978 43.6488 29.1689 43.4049 29.4014 43.0996L30.167 43.708C30.0075 43.9495 29.8047 44.1797 29.5586 44.3984C29.3125 44.6172 29.0094 44.7949 28.6494 44.9316C28.2939 45.0684 27.8724 45.1367 27.3848 45.1367ZM36.4014 43.5645V34.5H37.6729V45H36.5107L36.4014 43.5645ZM31.4248 41.3838V41.2402C31.4248 40.6751 31.4932 40.1624 31.6299 39.7021C31.7712 39.2373 31.9694 38.8385 32.2246 38.5059C32.4844 38.1732 32.792 37.918 33.1475 37.7402C33.5075 37.5579 33.9085 37.4668 34.3506 37.4668C34.8154 37.4668 35.221 37.5488 35.5674 37.7129C35.9183 37.8724 36.2145 38.1071 36.4561 38.417C36.7021 38.7223 36.8958 39.0915 37.0371 39.5244C37.1784 39.9574 37.2764 40.4473 37.3311 40.9941V41.623C37.2809 42.1654 37.1829 42.653 37.0371 43.0859C36.8958 43.5189 36.7021 43.888 36.4561 44.1934C36.2145 44.4987 35.9183 44.7334 35.5674 44.8975C35.2165 45.057 34.8063 45.1367 34.3369 45.1367C33.904 45.1367 33.5075 45.0433 33.1475 44.8564C32.792 44.6696 32.4844 44.4076 32.2246 44.0703C31.9694 43.7331 31.7712 43.3366 31.6299 42.8809C31.4932 42.4206 31.4248 41.9215 31.4248 41.3838ZM32.6963 41.2402V41.3838C32.6963 41.7529 32.7327 42.0993 32.8057 42.4229C32.8831 42.7464 33.0016 43.0312 33.1611 43.2773C33.3206 43.5234 33.5234 43.7171 33.7695 43.8584C34.0156 43.9951 34.3096 44.0635 34.6514 44.0635C35.0706 44.0635 35.4147 43.9746 35.6836 43.7969C35.957 43.6191 36.1758 43.3844 36.3398 43.0928C36.5039 42.8011 36.6315 42.4844 36.7227 42.1426V40.4951C36.668 40.2445 36.5882 40.0029 36.4834 39.7705C36.3831 39.5335 36.251 39.3239 36.0869 39.1416C35.9274 38.9548 35.7292 38.8066 35.4922 38.6973C35.2598 38.5879 34.984 38.5332 34.665 38.5332C34.3187 38.5332 34.0202 38.6061 33.7695 38.752C33.5234 38.8932 33.3206 39.0892 33.1611 39.3398C33.0016 39.5859 32.8831 39.873 32.8057 40.2012C32.7327 40.5247 32.6963 40.8711 32.6963 41.2402ZM44.167 43.291V37.6035H45.4385V45H44.2285L44.167 43.291ZM44.4062 41.7324L44.9326 41.7188C44.9326 42.2109 44.8802 42.6667 44.7754 43.0859C44.6751 43.5007 44.5111 43.8607 44.2832 44.166C44.0553 44.4714 43.7568 44.7106 43.3877 44.8838C43.0186 45.0524 42.5697 45.1367 42.041 45.1367C41.681 45.1367 41.3506 45.0843 41.0498 44.9795C40.7536 44.8747 40.4984 44.7129 40.2842 44.4941C40.07 44.2754 39.9036 43.9906 39.7852 43.6396C39.6712 43.2887 39.6143 42.8672 39.6143 42.375V37.6035H40.8789V42.3887C40.8789 42.7214 40.9154 42.9971 40.9883 43.2158C41.0658 43.43 41.1683 43.6009 41.2959 43.7285C41.4281 43.8516 41.5739 43.9382 41.7334 43.9883C41.8975 44.0384 42.0661 44.0635 42.2393 44.0635C42.777 44.0635 43.2031 43.9609 43.5176 43.7559C43.832 43.5462 44.0576 43.266 44.1943 42.915C44.3356 42.5596 44.4062 42.1654 44.4062 41.7324ZM48.7402 34.5V45H47.4688V34.5H48.7402ZM53.8398 45.1367C53.3249 45.1367 52.8577 45.0501 52.4385 44.877C52.0238 44.6992 51.666 44.4508 51.3652 44.1318C51.069 43.8128 50.8411 43.4346 50.6816 42.9971C50.5221 42.5596 50.4424 42.0811 50.4424 41.5615V41.2744C50.4424 40.6729 50.5312 40.1374 50.709 39.668C50.8867 39.194 51.1283 38.793 51.4336 38.4648C51.7389 38.1367 52.0853 37.8883 52.4727 37.7197C52.86 37.5511 53.2611 37.4668 53.6758 37.4668C54.2044 37.4668 54.6602 37.5579 55.043 37.7402C55.4303 37.9225 55.7471 38.1777 55.9932 38.5059C56.2393 38.8294 56.4215 39.2122 56.54 39.6543C56.6585 40.0918 56.7178 40.5703 56.7178 41.0898V41.6572H51.1943V40.625H55.4531V40.5293C55.4349 40.2012 55.3665 39.8822 55.248 39.5723C55.1341 39.2624 54.9518 39.0072 54.7012 38.8066C54.4505 38.6061 54.1087 38.5059 53.6758 38.5059C53.3887 38.5059 53.1243 38.5674 52.8828 38.6904C52.6413 38.8089 52.4339 38.9867 52.2607 39.2236C52.0876 39.4606 51.9531 39.75 51.8574 40.0918C51.7617 40.4336 51.7139 40.8278 51.7139 41.2744V41.5615C51.7139 41.9124 51.7617 42.2428 51.8574 42.5527C51.9577 42.8581 52.1012 43.127 52.2881 43.3594C52.4795 43.5918 52.7096 43.7741 52.9785 43.9062C53.252 44.0384 53.5618 44.1045 53.9082 44.1045C54.3548 44.1045 54.7331 44.0133 55.043 43.8311C55.3529 43.6488 55.624 43.4049 55.8564 43.0996L56.6221 43.708C56.4626 43.9495 56.2598 44.1797 56.0137 44.3984C55.7676 44.6172 55.4645 44.7949 55.1045 44.9316C54.749 45.0684 54.3275 45.1367 53.8398 45.1367Z" fill="#505050"/>
</svg>
